<svg xmlns="http://www.w3.org/2000/svg" width="372" height="45" fill="none" viewBox="0 0 372 45" class="case_refill">
  <path fill="#927460" d="M370.701 13.665c.545.08.38-.234.468-.28-.925-.024-.453.359-.468.28Zm-9.111-.213.171-.105-1.364.165 1.193-.06Zm-8.459-.832c.753.581 3.072.218 4.562.544l.238.138.718-.338a54.352 54.352 0 0 1-5.518-.344Zm-4.419-1.484c.261.218-.992.09 1.049.147-.096-.028-.129-.044-.191-.066-.179-.011-.43-.032-.858-.08Zm.862.081c-.568-.21.895.058 0 0Zm-4.132-.22 1.191-.08c-.235-.135-1.277-.246-.884-.299-1.215-.002-.976.133-.307.379Zm-1.145.276.618-.024c-.11-.058-.265-.09-.618.024Z"/>
  <path fill="#927460" d="m346.217 11.197-1.306.052c.164.095.169.26.599-.008-.119.14.152.018.707-.044Zm.729.137c.65.163 1.496.3.301.379 2.252.112 1.95-.268-.301-.38Zm5.706 1.764.87.234.777-.095c-.392.046-1.687-.303-1.647-.14Zm-14.513-2.958c-.082.1.374.317.45.461l.878-.052c-.439-.106-1.282-.242-1.328-.41Zm.447.465-1.313.078c1.16.116 1.379.046 1.313-.078Zm5.455 1.21 2.165-.213-2.578.185.413.028Zm-10.867-2.087.756-.188-1.34.268.584-.08Zm-3.297-.193c.562-.17-.723-.396-.137-.486a12.383 12.383 0 0 0-2.376.221 8.624 8.624 0 0 1 2.513.265Zm-3.684-.108c.368-.024.753-.09 1.172-.16a6.89 6.89 0 0 0-1.172.16Zm8.873 1.025a1.858 1.858 0 0 0-1-.39l.488.344.512.046Z"/>
  <path fill="#927460" d="m334.572 10.416-.018-.01-1.101-.107 1.119.117Zm.622.047-.128-.01c.047.032.075.045.128.01Zm5.465.805c-.777.105-2.385.157-.862.539.564-.162-.302-.378.862-.54Zm-4.858-.378 1.374.18c-.021-.08-.26-.217.123-.27l-1.497.09Zm-.684.042.682-.04-.509-.067-.173.107ZM328.54 9.86c-.663.074-1.332.086-1.998.037.786.11 1.601.194 2.377.243.117-.091.47-.235-.379-.28Zm2.932.273-.134.01c.08.029.144.043.134-.01Zm-12.188-.706.112.062a.5.5 0 0 1 .032-.05l-.144-.012Zm9.763.777c.43.08.871.071 1.296-.026-.446.003-.918-.009-1.423-.038-.053.04-.064.067.127.064Zm-4.889-.767a15.8 15.8 0 0 0 1.018.232 2.53 2.53 0 0 0-1.018-.232Zm6.985.609.089-.007c-.19-.078-.167-.045-.089.007Zm0 0c-.27.027-.537.072-.801.136.363 0 .701-.01.995-.037a1.033 1.033 0 0 1-.194-.099Zm-14.176 1.177c.121-.273 1.698-.43 3.024-.045 1.339-.125.532-1.1-.595-1.689-.049.12-.056.231-1.431.309.472.184 3.006.551 1.839.73a4.561 4.561 0 0 1-2.344-.396c.725.397-2.326.36-1.966.898l1.594-.08c.025.086-.557.173-.121.273Zm5.029-1.538.564.002a10.172 10.172 0 0 1-1.919-.504c-.943.077-1.143.166-1.213.254l2.764.216-.196.032Zm3.086.163c-.46.276-1.816.319-1.013.704 1.649.085 1.171-.179 2.165-.248-2.664-.096.776-.12-1.138-.417a20.74 20.74 0 0 1 1.442.012 27.707 27.707 0 0 1-1.367-.228l.06.023.013.003c.112.045.148.07.02.04a.282.282 0 0 1-.056.003.333.333 0 0 1-.126.108c-.766-.113-.115-.087.126-.108.009-.015.032-.026.036-.043l-.011-.003-2.676-.005c.563.076 1.27.113 2.525.159Zm13.245 2.498c-.081-.034-.075-.055-.08-.078-.175.023-.241.04.08.078Zm-1.078-.274c.323-.091.662-.11.993-.054.538.136-.014.145.007.248.385-.05 1.342-.111.166-.355l-.191.026a6.823 6.823 0 0 1-2.219-.708c.351.364.775.65 1.244.843Zm-6.161-1.086-2.228.007 1.11.338-.046-.162c1.258.14 1-.07 1.164-.183ZM319.042 9.26l.315-.302-1.306.373.991-.07Zm-2.89-.147.123-.272-.771.12.648.152Zm-162.69 4.761-.641.133a7.35 7.35 0 0 0 .641-.133Zm4.707-.3.106-.145c-.213.09-.299.152-.106.145Zm87.05-6.555c-.952-.26-2.016-.663-1.901-.35l.293.307a6.757 6.757 0 0 1 1.608.043Zm-48.523 2.769.282.084.629-.316-.911.232Zm-.619 1.292-1.26-.154c.417.078.837.13 1.26.155Zm-68.245 5.38-.725.387c1.18-.122.644-.227.725-.388Zm158.752-8.629a16.873 16.873 0 0 0-2.042-.248c.983.206 1.771.495 2.042.248Zm-131.512 2.671c-.395.083-.561.157-.543.224.406-.08.633-.153.543-.224ZM282.17 7.51c.145.03.285.06.432.086a16.39 16.39 0 0 1 1.94-.013 5.507 5.507 0 0 0-2.372-.073ZM35.35 29.06c-.07-.001-.15.01-.214.005-.012.045.08.028.214-.006ZM8.31 33.492c.247-.113.662-.268 1.051-.418-.36.111-.712.251-1.05.418ZM304.548 8.353c.099-.029.611.008 0 0Zm2.916 1.353c-.132.028-.234.068-.253.137a.41.41 0 0 1 .253-.137Zm-31.447-.478-.053-.003c.181.066.149.054.053.003Zm29.446-.692a9.232 9.232 0 0 0-.779-.128c.126.03.362.07.779.128Zm-.116-.15.533.055c.079-.047.013-.083-.533-.055Zm-1.651-.056c.35.01.677.041.99.078-.119-.025-.169-.046-.135-.054l-.855-.025ZM84.618 20.39l-.133-.011c-.592.208-.33.152.133.011Zm144.688-10.105.07-.016-.091-.01.021.026Z"/>
  <path fill="#927460" d="M227.115 10.554a3.747 3.747 0 0 1 2.172-.294l-.735-.872-1.437 1.166Z"/>
  <path fill="#927460" d="m142.214 14.908 1.558.145c-1.815.609-3.168.565-1.694.83.136-.975 5.955-.603 6.094-1.576l1.029.117c-.291.016-.333.076-.62.09 2.006.293 1.408-.816 3.958-.896.889-.006 1.519.099.923.251l1.955-.371c.576-.02.448.155-.126.178l3.004-.281-.019.03c.418-.18 1.375-.478 1.843-.61.774.086-.376.125-.172.235l1.651-.345c.696.202-.669.536-1.823.579 1.624.85 1.367-.335 4.763-.003l-1.565.228c1.05.474 2.265.195 4.064.414-.433-.15-3.617-.613-1.824-.975a6.21 6.21 0 0 0 2.152-.232c.03.34.981.192 2.168.092l-.053.457c1.28-.218 1.164-.44 1.91-.695 1.442-.052 1.758.272 2.114.552 2.306-.046-1.623-.48 1.097-.704 1.862.024 3.72-.166 5.538-.565 1.349.082-.22.288.268.392l1.169-.421c.292-.006.203.109.159.168.993-.19.058-.456 1.627-.66.4-.518 3.268.563 5.188-.103.489.104-.219.289-.063.457a33.881 33.881 0 0 0 4.452-.996l1.883.232c-1.389-.295.351-.754 1.877-1.134-.495-.147-.918-.276-1.2-.335l2.449-.328c.3.064.054.228-.337.432l.446-.124c.886.136.44.413-.179.687l-.896-.247c-.597.295-1.154.618-1.016.88.262-.077.53-.127.801-.15-.156.08-.254.15-.179.193.075.042.338-.064.734-.194l.578.485.127-.205 3.228.205a39.947 39.947 0 0 1 7.9-1.738c-.895.402-.177.61-.213 1.05-1.01-.428-2.823.296-4.713.267.989.014.778.23.529.317l3.359-.54c-.065.361.724.245 1.609.361-.687-.677 2.5-.574 3.867-.808.092.244-.232.47-1.908.475 1.861.468 2.365-.884 4.189-.472-.412.015-.63-.02-.789.105.951-.229 3.293-.103 2.745.114l-.412.014c2.716.035 8.263-.146 8.661-.754a2.36 2.36 0 0 1-.508.857l4.821-2.113c-.418.524 1.232 1.726-1.016 2.057.935.105 1.88.08 2.808-.073-.442-.066-1.107-.727-.505-.785a22.94 22.94 0 0 0 3.195.782c-.662-.11.066-.922 1.111-.897-.163.12.093.8-.29.884l2.596-.8c-.645.146-.111.674.471.897.978-.075 1.96-.098 2.941-.07l-1.102-.182c2.94.114 2.896-1.122 5.813-1.087-.353.165-.871 1.013.61 1.11a14.481 14.481 0 0 1 5.595-2.277l.494.24 1.982-.237c-.619.299-1.795.753-3.053 1.202-1.258.449-2.595.914-3.539 1.167 1.098.182.306.27 1.949.25.581.217-.897.332-1.382.347 1.276.05 2.552.077 3.827.145-.167-.479 2.931-.434 2.789-.833-1.388.15-2.775.277-4.163.444-.166-.487 2.415-1.327 5.131-1.202.688.2-.526.838-.471.998a9.888 9.888 0 0 1 2.828-.155l-1.155.238c1.508.201 2.478-.597 4.283-.112.626.04 1.861.64 1.974.36-1.013-.558-1.189-2.238-.499-2.635.22.04 3.288.567 3.997.85 1.025.44-1.57.995-.7 1.368.041-.128.614-.278.853-.33.656.12-.281.399 1.15.36.249-.478 2.907.084.684-.397a25.327 25.327 0 0 1 3.128.136c-.516-.329 1.499-1.01 2.907-1.107-.086.12.225.289.375.367 2.868.132 4.402.4 7.077.482.243.125 1.528.306.973.497a5.6 5.6 0 0 1 1.571-.212c1.582.466-1.842.007-.641.547.113-.277 2.145-.32 3.327-.458-.345-.444-2.712-.168-3.894-.03.015-.596 2.086-1.156 4.894-1.345 2.229-.08.949.415 1.339.343 4.17.262 3.6-.883 7.05-.297 1.358.447.027.76.321 1.048a32.931 32.931 0 0 1-3.996-.417l1.503.252a8.324 8.324 0 0 1-2.446-.008c1.142.397 7.046.402 10.249.87.578-.1 1.573-.184 1.112-.36l-1.023.005c-.921-.352 1.938-.333.656-.538a18.126 18.126 0 0 1 4.843-.15l.338.45a3.613 3.613 0 0 0-1.795-.212c.813-.153 2.92.723 3.829.2l-1.332-.363c1.582-.3 3.198-.39 4.804-.263-.751-.477-.396.024-1.578-.554.507.346-.583.266-1.594.203-1.011-.063-1.944-.094-1.117.273-1.213-.639-2.139-.352-3.741-.92.043.144.563.3-.868.161a1.7 1.7 0 0 1-.321.11l-.099-.014.08.017c-.064.018-.07.023.029.006.252.043.495.13.718.255a29.198 29.198 0 0 1-3.783.308c-.847-.108.363-.146-.092-.326l-1.167.199c-.098-.328-2.234-.635-.223-.725l-1.802-.1a12.81 12.81 0 0 0-3.417-.278c-.847-.11-2.162.248-1.412.035l-2.835.067-.008-.08c-2.79-.128-5.763.346-8.937-.326a21.57 21.57 0 0 1-3.485-.02l-.299-.285c-1.21.059-3.617-.388-4.143-.117-1.284-.804-5.856-.295-7.979-.453l-.088.357c-1.461-.041-2.864.04-4.68.157l.107.32c-1.567.237-4.017-.286-6.49-.29a2.55 2.55 0 0 1 1.239.003 13.573 13.573 0 0 0-4.559-.14 15.38 15.38 0 0 1-4.354.08 4.488 4.488 0 0 1-1.62 0 .84.84 0 0 0 .165-.017l-.275-.003c-.295-.055-.598-.117-.927-.168.257.074.518.13.782.167-.513.008-1.296.048-2.061.128l-.327-.34-.177.01c-.751-.124-.603.162-.203.418-.342.046-.68.115-1.012.208-.611-.549-2.008.187-2.842-.4-.515.287-3.848.223-4.251.824-.026-.078-.252-.115.161-.12a8.528 8.528 0 0 0-2.47.036l-.366-.432-1.857.616c-1.135-.241-1.606-.388-.486-.742-2.707.562-2.197.234-4.499.78l.108-.283c-.824.03-2.135.425-2.639.202a32.159 32.159 0 0 0-5.854-.19c-2.645.025-5.651.078-8.024-.072.943.793-2.212-.292-2.381.353-.282-.185-.945-.273-.184-.469-2.409.276-3.641-.182-5.292.414-.283-.186.507-.301.257-.411a2.19 2.19 0 0 1-1.019.09c-.25-.108.345-.178.728-.274-2.469.118-2.695.727-2.854 1.298a4.039 4.039 0 0 0-2.771.236c-.443-.17-1.177-.337.354-.457-.431.002-1.752-.02-2.973.015-1.221.034-2.342.16-2.376.387a4.136 4.136 0 0 0-1.431.092c-1.936.072-2.107.04-4.005.18l.53.047c-.723.583-1.576.202-3.1.346l.041-.057c-3.533-.214-1.505.265-4.993-.005l.207.33c-.281.745-3.092-.274-5.086.11l.736.156c-1.086.301-3.126-.789-4.235-.809-.242-.051.373-.125.705-.196-2.914-.235-.346.468-2.489.717-.412-.212.472-.642-.978-.589-.735-.145-4.147 1.06-6.152.736.448.155.892.31-.096.515-1.524.17-4.189-.415-5.527.256-.196-.042-.276-.08-.288-.126-1.509.183-3 .49-4.458.92-1.174-1.076-7.215 1.182-7.279.102l-3.59.36.085-.116a9.775 9.775 0 0 0-3.877.775c-.538-.03-.16-.162-.121-.222a17.21 17.21 0 0 0-6.461.988l-.325-.318c-.742.279-4.9-.058-8.146.68.027-.043.088-.117.347-.191a35.716 35.716 0 0 1-6.002.432c-1.938.055-3.563.247-4.169.954l-2.4.6c3.161-.273-.407.605.912.664-1.229.22-3.245-.007-1.731-.25l.246.035c.483-.727-3.942.227-3.91-.233-3.099.381-6.17.657-9.192.922-3.02.295-5.989.607-8.89.98l.736.422-2.026.243c-.546-.049-.766-.305.68-.478a4.09 4.09 0 0 0-2.413.689c-2.853.172 1.022-.746.154-.642l-1.167.198.273.024a7.415 7.415 0 0 1-2.716.78c-1.112.045-.607-.24-1.042-.202-.002-.037-.151-.033-.665.074l-2.554.299 1.076.267c-1.096.351-2.397.301-1.158.6-1.824-.46-9.516 1.179-10.606 1.119a24.993 24.993 0 0 1-5.022 1.02c.493.012.85.421-.82.618.46-1.027-3.112.046-4.563-.406 1.276.25-4.707.878-2.72 1.204-1.397.156-.141-.337-1.229-.381-3.238.908-7.315 1-11.365 1.916-.04.135.675.19-.159.54l-2.268-.176c-.791.225-.59.852-2.147.734.23.058.569.145.038.3a83.807 83.807 0 0 0-12.062 2.792c-4.011 1.164-7.997 2.407-12.093 3.3 1.136-.167.442.117-.359.426.541-.141.094.293.256.413-1.134.26-2.278.506-3.404.809-.207.336-1.068.693-1.893 1.037-.826.343-1.608.715-1.683.99l.972-.516c-.563.537.023.599.749.62.726.022 1.611.037 1.642.384 1.272-1.177 4.248-.75 6.443-2.418.596-.059-.397.369-.05.415a5.823 5.823 0 0 1 2.741-1.167l-.139.12a46.137 46.137 0 0 1 4.973-1.426c1.525-.369 3.133-.674 5.44-1.18l-.422-.239a8.352 8.352 0 0 1 1.712-.19c1.008-.779-2.775.67-1.884-.134 1.467.312 6.977-1.704 8.047-1.106 1.53-.33-.53-.282.998-.606l.448.117.331-.349c1.017-.162 1.576-.01 1.65.158a8.896 8.896 0 0 0-.941.258 39.582 39.582 0 0 0 4.125-.83l-1.502.159c4.155-1.028 9.348-1.659 13.368-2.745l-.336-.105c3.078-.79 2.527-.254 5.943-.905l-.115.057a11.323 11.323 0 0 1 2.513-.602c-.84.314 1.688.108.581.483 3.344-.822 1.64-.497 3.795-1.417l.556.18a6.553 6.553 0 0 1 2.48-.81c-1.374.436 1.156.23-.377.762 3.685.022 5.265-1.383 7.038-.803 1.551-.968-3.175.073-2.271-.22-.81-.118 1.29-.748 2.428-.844 1.152-.163 2.091.65 4.99.238-.29.035-.302.092-.59.127 1.112.038 2.093-.534 3.463-.416.687-.534 1.733-.208 1.872-.79l-2.645.486c1.489-.348 2.817-1.188 5.347-1.208a7.103 7.103 0 0 1-1.397.535c.749.066 1.386-.297 2.162-.23-.14.583-3.219.556-4.778 1.197.812.13 3.003-.814 2.271-.104 1.065-.922 2.87-.287 4.758-1.135l-.086.35a8.397 8.397 0 0 1 1.5-.406l-.98.57c1.543-.582 3.106-.09 4.603-.496-3.191.44-.767-.305-2.149-.367 3.888-.977 2.377.579 6.77-.113-.591.117-2.27.064-1.354-.2.839-.051 1.68-.024 2.514.08 2.92-.413-.49-.29.73-.64 1.046.287 1.418-.335 2.687-.616l.049.337c3.361-.175.802-.81 3.838-.902l-1.217.62 1.553-.306-.279.423a13.098 13.098 0 0 1 3.891-.564c-.416-.19.149-.64 1.627-.825 1.03.086-.53.382 1.562.101a2.29 2.29 0 0 1-1.886.383c-.081.122-.443.268-.527.388a20.193 20.193 0 0 0 3.494-.338 4.937 4.937 0 0 1-.83.005l2.992-.778c.494.079.123.22-.242.358.612-.099 1.022-.294 1.929-.418-.206.299-.123.578-1.387.838l2.866-.6c.206.101 1.52.18 1.158.32 1.622 0 3.886-.934 6.037-.934.244-.115.505-.19.772-.224a30.721 30.721 0 0 0 6.155-.578l1.393.381c1.851-.268-1.883-.47 1.2-.917 2.181-.343.857.353 1.638.426a11.678 11.678 0 0 1 4.97-.777c-.657.136-1.188.11-1.807.199Zm22.954-1.962c-.441.101-1.313.382-1.652.203.48-.422.886-.261 1.652-.2v-.003Zm34.946-2.623c-.47.109-.96.1-1.426-.023a6.21 6.21 0 0 1 1.427.025l-.001-.002Zm97.71-2.015a.316.316 0 0 0-.049.013c-.991-.178-.636-.108.049-.01v-.003Zm2.063.247c.213-.038.198-.086.113-.138-.376.075-.764.08-1.142.013a1.65 1.65 0 0 0 1.03.126l-.001-.001ZM77.827 18.986l.411.035c-.889.219-.644.098-.412-.035Z"/>
  <path fill="#927460" d="M196.157 10.93a.333.333 0 0 1-.199-.178c-.168.063-.17.13.199.178Zm-68.194 5.456-.07.003a.158.158 0 0 0-.064.069l.134-.072Zm139.774-5.999a3.103 3.103 0 0 1-.819-.189c-.023.084.169.158.819.189Zm43.158-1.885-1.334.023c.403.004.803.06 1.191.168-.025-.078-.273-.206.143-.191Zm11.372 2.83c.197-.028.411.022.604-.008l-.042-.161c-.825-.042-1.409.048-.562.17Zm-10.209-1.635c.09.294.926.25 1.857.256-.056-.003-.109-.003-.165-.01.298-.383-.7-.315-1.692-.246Zm2.072.261c.287.004.579.02.858.047.119-.154-.346-.055-.858-.047Zm-11.606-1.466c.437.093.294-.354.538-.225.51-.341-2.96.3-.538.225Zm10.232 2.197-.313-.374-.536.252.849.122Zm-7.312-.627 1.478.169c-.02-.06.171-.087.403-.102a7.97 7.97 0 0 0-1.881-.067Z"/>
  <path fill="#927460" d="M307.325 10.13c.398.037.799.037 1.197-.003a13.925 13.925 0 0 0-1.197.002Zm3.4.552-.436-.093-1.046-.076 1.482.169Zm-21.226-1.409-1.623.052c-.169.116.269.204.874.174.391-.073.994-.101.749-.226Zm4.857 1.164a1.802 1.802 0 0 1-.702-.304l-.067.437.769-.133Zm-4.721-.087c-.167.117-2.362.276-.31.312.169-.115 1.794-.165.31-.312Zm-24.379-1.203h.409l-.05-.727-.359.727Zm-21.511 1.546c1.917.17.456-.445 2.188-.233.45-.171-1.416-.174-.955-.32-1.157.18-1.765.08-1.233.553Zm1.233-.553c.185-.029.382-.065.591-.111a3.844 3.844 0 0 0-.591.11ZM3.913 34.832l-1.203.369.84-.104.363-.265ZM1.925 36.29l-.457-.302-.515.681c.298-.184.628-.313.972-.38Zm166.719-22.649.086-.117a2.337 2.337 0 0 0-1.063-.074l.977.191Zm-16.697.812.287-.015-.567-.368.28.383Zm-13.931 1.705c.572-.031 1.235-.18 1.809-.21-1.237.182-2.01-.29-1.809.21ZM354.999 2.041c.503.04.333-.261.41-.312-.847.038-.39.39-.41.312Zm-8.366.441.15-.117-1.238.262 1.088-.145Zm-7.807-.205c.725.523 2.831-.012 4.217.202l.226.121.639-.39a46.296 46.296 0 0 1-5.082.067Zm-4.137-1.195c.252.203-.904.147.971.086-.098-.021-.121-.037-.175-.055a15 15 0 0 1-.796-.031Z"/>
  <path fill="#927460" d="M335.484 1.113c-.535-.178.823.006 0 0Zm-3.801.027 1.087-.153c-.223-.12-1.191-.169-.827-.244-1.116.073-.892.194-.26.397Zm-1.037.345.564-.062c-.098-.051-.245-.07-.564.062Z"/>
  <path fill="#927460" d="m332.405 1.292-1.195.131c.154.085.168.249.548-.045-.101.148.138.01.647-.086Zm.672.092c.605.123 1.387.208.298.36 2.074-.021 1.777-.385-.298-.36Zm5.337 1.405.807.172.707-.152c-.352.072-1.561-.18-1.514-.02ZM324.939.734c-.07.105.358.294.436.433l.804-.106c-.41-.082-1.19-.167-1.24-.327Zm.432.432-1.201.159c1.073.045 1.27-.038 1.201-.159Zm5.07.876 1.975-.346-2.355.343.38.003ZM320.364.635l.684-.237-1.217.355.533-.118Zm-3.035-.009c.506-.199-.683-.36-.15-.478a10.61 10.61 0 0 0-2.169.336 7.336 7.336 0 0 1 2.319.142Zm-3.387.072c.337-.044.687-.127 1.067-.214-.361.039-.719.11-1.067.214Zm8.192.536a1.607 1.607 0 0 0-.936-.323l.465.31.471.013Z"/>
  <path fill="#927460" d="m321.68 1.23-.016-.01-1.015-.033 1.031.044Zm.573.007-.118-.004c.044.03.071.042.118.004Zm5.056.465c-.707.156-2.177.304-.763.592.509-.196-.3-.36.763-.592Zm-4.478-.077 1.27.095c-.024-.08-.249-.202.1-.278l-1.37.183Zm-.624.085.624-.085-.471-.033-.153.119Zm-6.088-.691a9.267 9.267 0 0 1-1.833.132c.727.072 1.478.117 2.193.129.102-.094.419-.259-.36-.261Zm2.701.13-.123.014c.075.03.135.036.123-.014Zm-11.22-.092.107.057a.343.343 0 0 1 .026-.052l-.133-.005Z"/>
  <path fill="#927460" d="M316.6 1.337a2.74 2.74 0 0 0 1.187-.088c-.414.022-.844.035-1.309.028-.046.044-.055.071.122.06ZM312.076.81c.285.06.605.128.945.179-.277-.1-.843-.258-.945-.18Zm6.438.267.082-.012c-.178-.068-.156-.036-.082.012Zm0 0a4.948 4.948 0 0 0-.727.172 10 10 0 0 0 .911-.085.933.933 0 0 1-.184-.087Zm-12.962 1.896c.099-.28 1.542-.52 2.777-.205 1.224-.195.438-1.126-.622-1.654-.04.121-.041.234-1.3.385.439.159 2.786.388 1.722.632a3.878 3.878 0 0 1-2.171-.275c.684.358-2.125.483-1.767 1l1.461-.162c.026.08-.503.202-.1.28Zm4.55-1.801.517-.029a8.654 8.654 0 0 1-1.784-.402c-.863.124-1.043.228-1.102.321l2.546.07-.177.04Z"/>
  <path fill="#927460" d="M312.943 1.172c-.409.296-1.653.413-.897.751 1.518.001 1.067-.237 1.976-.354-2.451.034.706-.157-1.061-.361a17.01 17.01 0 0 1 1.324-.058 22.596 22.596 0 0 1-1.264-.161l.056.02.01.002c.105.04.14.063.021.04a.282.282 0 0 1-.051.006.296.296 0 0 1-.112.113c-.709-.075-.11-.082.112-.113.009-.015.028-.03.031-.045l-.009-.002-2.456.134c.516.049 1.166.045 2.32.028Zm12.284 1.748c-.076-.028-.072-.05-.078-.072-.161.032-.226.058.078.072Z"/>
  <path fill="#927460" d="M324.22 2.716a1.94 1.94 0 0 1 .909-.113c.5.106-.006.146.019.247.351-.073 1.227-.192.135-.364l-.175.038a5.899 5.899 0 0 1-2.074-.571c.336.336.74.597 1.186.763Zm-5.709-.698-2.046.115 1.035.282-.05-.16c1.161.082.917-.117 1.061-.237ZM307.368.904l.272-.32-1.186.44.914-.12Zm-2.656.006.101-.279-.702.158.601.121ZM155.449 11.528l-.584.154a5.12 5.12 0 0 0 .584-.154Zm4.3-.532.088-.15c-.189.1-.264.168-.088.15Zm79.715-9.46c-.883-.234-1.875-.61-1.758-.297l.279.297a5.709 5.709 0 0 1 1.479 0ZM194.962 5.81l.262.074.566-.335-.828.261Zm-.514 1.31-1.163-.102c.385.058.774.092 1.163.103Zm-62.359 8.182-.638.418c1.078-.174.578-.253.638-.418ZM277.504.923a14.412 14.412 0 0 0-1.885-.173c.912.17 1.647.43 1.885.173ZM156.727 8.08c-.358.102-.506.184-.487.252.369-.1.574-.187.487-.251ZM273.439.765c.133.028.263.044.399.07a13.945 13.945 0 0 1 1.781-.085 4.665 4.665 0 0 0-2.18.015ZM48.833 35.452c-.063.005-.137.023-.196.024-.005.045.073.02.196-.024Zm-24.581 5.741c.223-.11.597-.262.95-.411-.329.11-.646.247-.95.411ZM294.025.687c.09-.033.563-.016 0 0Zm2.732 1.23c-.119.034-.212.078-.227.148a.377.377 0 0 1 .227-.148Zm-28.911.805-.049-.002c.169.059.139.047.049.002Zm27.026-1.89a7.967 7.967 0 0 0-.72-.095c.117.023.335.054.72.095Zm-.113-.146.492.033c.071-.052.009-.082-.492-.033Zm-1.519.012c.323-.002.623.014.912.039-.109-.024-.156-.04-.126-.05l-.786.011ZM92.822 22.094l-.124-.001c-.521.253-.284.177.124 0Zm132.13-16.792c.026-.004.04-.013.064-.018l-.083-.006.019.024Z"/>
  <path fill="#927460" d="M222.948 5.633a3.186 3.186 0 0 1 1.989-.355l-.709-.85-1.28 1.205Z"/>
  <path fill="#927460" d="m145.181 13.032 1.441.072c-1.627.692-2.871.713-1.501.908.06-.979 5.428-.879 5.491-1.857l.951.067c-.266.029-.301.09-.563.119 1.858.202 1.243-.866 3.583-1.033.818-.03 1.401.035.864.22l1.771-.467c.527-.05.421.133-.104.182l2.74-.427-.018.03c.54-.261 1.093-.494 1.656-.699.716.05-.337.147-.144.242l1.496-.417c.651.179-.586.554-1.641.66 1.536.767 1.236-.396 4.376-.194l-1.425.283c.991.437 2.091.113 3.755.266-.404-.133-3.353-.482-1.727-.907a5.241 5.241 0 0 0 1.965-.31c.046.34.908.157 1.996.016l-.025.458c1.164-.264 1.047-.482 1.718-.76a2.215 2.215 0 0 1 1.969.485c2.115-.137-1.513-.415.977-.746a20.568 20.568 0 0 0 5.054-.786c1.242.033-.188.298.266.382l1.053-.467c.266-.02.192.1.154.16.903-.23.032-.457 1.463-.722.342-.547 3.029.464 4.765-.256.451.09-.189.295-.039.458a28.419 28.419 0 0 0 4.049-1.12l1.739.148c-1.287-.226.288-.78 1.677-1.209-.461-.128-.856-.247-1.118-.293l2.234-.41c.279.053.063.225-.293.44l.406-.138c.819.107.426.398-.137.694l-.835-.219c-.535.315-1.032.657-.896.913.237-.085.481-.145.73-.177-.139.085-.227.156-.157.199.071.042.308-.076.667-.218l.553.465.108-.21 2.971.099a32.517 32.517 0 0 1 7.192-1.977c-.805.421-.138.614-.155 1.054-.946-.413-2.582.37-4.321.404.909-.019.724.205.499.295l3.065-.641c-.046.362.676.227 1.494.326-.657-.67 2.277-.614 3.525-.909.092.233-.194.494-1.735.532 1.729.427 2.141-.967 3.834-.616-.375.029-.581.004-.722.135.865-.265 3.014-.231 2.526.008l-.374.022c2.496-.075 7.59-.39 7.933-1.017a2.413 2.413 0 0 1-.436.87l4.356-2.248c-.369.535 1.193 1.685-.862 2.086a9.1 9.1 0 0 0 2.578-.14c-.408-.058-1.044-.705-.491-.776.967.312 1.958.539 2.964.679-.612-.087.029-.923.99-.936-.144.126.113.795-.234.894l2.358-.892c-.591.168-.079.679.465.881a23.36 23.36 0 0 1 2.695-.174l-1.019-.144c2.701.007 2.625-1.21 5.307-1.257-.32.174-.768 1.036.596 1.093a12.845 12.845 0 0 1 5.069-2.43l.465.218 1.813-.314a45.287 45.287 0 0 1-5.979 2.584c1.015.152.29.266 1.798.197.54.202-.814.356-1.258.383l3.522.034c-.17-.477 2.679-.555 2.535-.939l-3.808.6c-.168-.466 2.174-1.429 4.674-1.39.64.174-.454.855-.397 1.012a8.366 8.366 0 0 1 2.592-.253l-1.053.277c1.393.148 2.253-.68 3.933-.263.576.02 1.732.573 1.827.286-.95-.522-1.17-2.191-.548-2.617 1.247.168 2.483.408 3.703.718.958.408-1.408 1.03-.594 1.388.028-.131.554-.298.772-.352.607.102-.244.406 1.07.33.212-.486 2.676.003.616-.416a24.93 24.93 0 0 1 2.88.038c-.484-.308 1.343-1.08 2.633-1.234-.074.124.217.279.358.35 2.641.004 4.059.23 6.52.214.228.116 1.416.249.911.46a4.76 4.76 0 0 1 1.437-.27c1.471.408-1.692.076-.57.57.095-.281 1.961-.401 3.041-.58-.334-.432-2.498-.068-3.58.114-.009-.597 1.875-1.237 4.448-1.526 2.046-.147.888.386 1.242.301 3.843.102 3.274-1.041 6.467-.608 1.265.382.055.757.336 1.032a27.83 27.83 0 0 1-3.687-.228l1.393.181a7.1 7.1 0 0 1-2.248.111c1.06.348 6.489.051 9.45.399.528-.124 1.437-.25 1.007-.405l-.938.045c-.861-.312 1.767-.412.58-.563a15.319 15.319 0 0 1 4.444-.35l.328.436a3.071 3.071 0 0 0-1.654-.138c.74-.188 2.711.605 3.525.043l-1.239-.31a16.352 16.352 0 0 1 4.4-.501c-.709-.437-.362.045-1.473-.47.963.627-4.018-.056-2.469.61-1.14-.59-1.98-.26-3.474-.767.045.144.529.277-.789.198a1.556 1.556 0 0 1-.289.125l-.09-.01.073.015c-.057.021-.062.025.028.006.234.033.46.108.668.221a24.756 24.756 0 0 1-3.462.465c-.782-.073.328-.162-.098-.317l-1.06.247c-.104-.32-2.077-.53-.233-.715l-1.659-.016a10.85 10.85 0 0 0-3.149-.116c-.782-.07-1.977.35-1.295.101l-2.598.197-.023-.08c-2.569-.05-5.283.552-8.221-.01a18.022 18.022 0 0 1-3.203.108l-.285-.273c-1.108.096-3.335-.234-3.809.056-1.207-.722-5.39-.087-7.344-.19l-.069.359a39.59 39.59 0 0 0-4.294.313l.109.315c-1.432.292-3.701-.144-5.974-.062a2.156 2.156 0 0 1 1.138-.04c-2.737-.67-5.718.682-8.195.23a3.785 3.785 0 0 1-1.49.043.747.747 0 0 0 .152-.02l-.252.003c-.274-.046-.555-.1-.859-.142.237.067.479.117.723.148a20.58 20.58 0 0 0-1.89.184l-.311-.331-.162.014c-.694-.103-.55.179-.172.424a5.823 5.823 0 0 0-.923.236c-.582-.526-1.839.26-2.626-.296-.464.305-3.529.359-3.878.975-.028-.078-.236-.107.143-.126a7.232 7.232 0 0 0-2.269.123l-.351-.419-1.687.652c-1.051-.21-1.489-.341-.473-.727-2.469.64-2.014.296-4.109.911l.09-.288c-.758.05-1.949.486-2.418.277-1.725-.469-8.388.399-12.769.18.899.772-2.048-.25-2.176.41-.269-.177-.88-.241-.187-.462-2.206.355-3.36-.063-4.849.587-.269-.177.453-.32.218-.419a1.85 1.85 0 0 1-.931.122c-.235-.099.313-.187.657-.298-2.266.2-2.449.815-2.571 1.39a3.436 3.436 0 0 0-2.538.328c-.413-.149-1.096-.289.304-.468-.795.035-4.857.143-4.9.6a3.495 3.495 0 0 0-1.312.13c-1.777.125-1.937.098-3.677.29l.49.033c-.64.604-1.438.238-2.836.448l.035-.06c-3.255-.072-1.369.322-4.59.193l.207.32c-.223.756-2.855-.15-4.666.313l.688.127c-.98.339-2.915-.68-3.936-.66-.227-.037.336-.14.639-.221-2.693-.128-.295.48-2.254.807-.39-.198.401-.66-.931-.553-.684-.116-3.76 1.205-5.622.96.42.133.837.269-.061.52-1.39.244-3.871-.21-5.063.53-.185-.027-.258-.066-.272-.11-1.377.253-2.73.617-4.049 1.087-1.149-1.044-6.557 1.51-6.688.432l-3.281.529.068-.122a7.954 7.954 0 0 0-3.509.992c-.496.005-.157-.151-.127-.213a15.46 15.46 0 0 0-5.871 1.307l-.324-.303c-.947.185-1.908.293-2.872.32a22.802 22.802 0 0 0-4.569.815c.022-.044.072-.121.301-.213a30.31 30.31 0 0 1-5.484.797c-1.772.2-3.256.47-3.751 1.215l-2.155.74c2.884-.461-.319.628.899.606-1.11.293-2.985.19-1.614-.14l.228.02c.38-.752-3.604.461-3.618.006-5.615 1.227-11.181 2.003-16.428 3.248l.724.358-1.835.4c-.51-.006-.738-.242.572-.528a3.499 3.499 0 0 0-2.143.873c-2.604.396.857-.82.07-.649l-1.055.287.255.002a6.773 6.773 0 0 1-2.407 1.004c-1.012.152-.583-.18-.977-.1-.007-.036-.142-.02-.6.138l-2.306.543 1.018.161c-.967.455-2.158.531-.99.71-1.726.05-3.436.34-5.082.861-2.059.548-4.017 1.168-4.521 1.185a21.206 21.206 0 0 1-4.474 1.508c.454-.038.836.332-.67.693.279-1.08-2.837.391-4.227.108 1.203.112-4.19 1.375-2.322 1.484-1.26.3-.178-.317-1.181-.251-2.849 1.206-6.551 1.785-10.136 3.081-.017.137.648.122-.07.55l-2.107.029c-.695.295-.434.885-1.87.92.216.034.54.089.077.293a106.285 106.285 0 0 0-10.749 3.66c-1.78.7-3.566 1.388-5.378 1.995a71.61 71.61 0 0 1-5.508 1.589c1.041-.16.415.118-.308.42.494-.137.102.29.258.41l-3.122.773c-.36.65-3.14 1.302-3.277 1.839l.9-.45c-1.034.987 2.175.387 2.247 1.091 1.157-1.114 3.966-.642 5.912-2.354.55-.07-.347.374-.022.415a5.027 5.027 0 0 1 2.49-1.18l-.12.122c3.62-1.42 5.263-1.79 9.438-3.076l-.42-.208a7.187 7.187 0 0 1 1.566-.3c.846-.834-2.497.843-1.76-.009 1.404.232 6.255-2.176 7.3-1.718 1.364-.473-.524-.227.839-.7l.428.073.258-.377c.912-.259 1.451-.151 1.54.005a7.93 7.93 0 0 0-.834.339 29.229 29.229 0 0 0 3.688-1.201l-1.358.305c1.842-.701 3.928-1.357 5.99-2.035 2.062-.678 4.12-1.305 5.878-2.07l-.323-.068c2.703-1.117 2.28-.504 5.3-1.552l-.1.069a8.653 8.653 0 0 1 2.216-.858c-.726.394 1.56-.06.597.42 2.952-1.144 1.434-.653 3.284-1.777l.533.125a5.6 5.6 0 0 1 2.165-1.048c-1.201.563 1.085.114-.25.794 3.365-.36 4.66-1.823 6.354-1.41 1.308-1.083-2.907.327-2.113-.04-.758-.05 1.094-.838 2.13-1.029 1.044-.25 1.994.45 4.594-.23-.26.063-.264.122-.524.185 1.02-.063 1.846-.747 3.119-.727.57-.584 1.566-.342 1.63-.931l-2.373.69c1.325-.462 2.453-1.4 4.772-1.617a6.123 6.123 0 0 1-1.223.64c.694.007 1.238-.403 1.958-.401-.065.591-2.89.804-4.249 1.56.758.066 2.664-1.04 2.07-.274.876-.998 2.6-.51 4.239-1.5l-.042.356a7.078 7.078 0 0 1 1.337-.52l-.837.64c1.35-.705 2.831-.33 4.175-.814-2.894.63-.736-.258-2.014-.232 3.474-1.203 2.242.417 6.2-.597-.53.164-2.072.238-1.259-.095a11.493 11.493 0 0 1 2.308-.113c2.632-.635-.477-.25.606-.689.985.21 1.267-.446 2.4-.818l.077.333c3.071-.378.662-.854 3.442-1.128l-1.06.689 1.397-.398-.218.438a11.046 11.046 0 0 1 3.522-.794c-.398-.168.081-.648 1.423-.924.953.02-.451.415 1.442 0a1.926 1.926 0 0 1-1.697.502c-.063.125-.383.292-.449.415a15.86 15.86 0 0 0 3.174-.56 4.71 4.71 0 0 1-.76.058l2.68-.963c.458.048.131.21-.193.368.553-.136.914-.359 1.732-.534-.168.31-.063.583-1.204.918l2.579-.77c.197.089 1.412.088 1.085.248 1.487-.087 3.484-1.188 5.465-1.273a2.17 2.17 0 0 1 .692-.261 24.188 24.188 0 0 0 5.604-.876l1.302.296c1.676-.383-1.757-.352 1.036-.99 1.977-.457.811.31 1.533.342a9.883 9.883 0 0 1 4.513-1.008c-.543.13-1.093.23-1.647.304Zm20.961-2.949c-.401.12-1.187.428-1.508.262.419-.44.8-.295 1.508-.262Zm31.983-3.849a2.499 2.499 0 0 1-1.314.028 5.257 5.257 0 0 1 1.314-.028ZM287.847.941a.33.33 0 0 0-.044.016c-.916-.133-.59-.08.045-.016h-.001Zm1.911.15c.192-.046.178-.094.097-.142a2.617 2.617 0 0 1-1.047.068c.296.135.63.163.945.078l.005-.003ZM86.436 21.276l.38-.005c-.79.303-.583.159-.383.005h.002Z"/>
  <path fill="#927460" d="M194.519 6.963a.334.334 0 0 1-.189-.172c-.158.074-.156.14.189.172Zm-62.31 8.257-.065.007a.153.153 0 0 0-.054.07l.119-.077ZM260.272 4.17a2.685 2.685 0 0 1-.76-.161c-.013.08.165.148.76.161ZM299.858.572l-1.222.08c.37-.012.741.028 1.099.12-.029-.08-.258-.196.123-.2Zm10.569 2.232c.178-.04.379 0 .555-.041l-.046-.159c-.761 0-1.293.122-.509.2Zm-9.445-1.09c.094.287.861.195 1.716.153-.051 0-.103.002-.152-.002.252-.397-.661-.276-1.564-.151Zm1.91.146c.264-.013.527-.012.79.003.103-.16-.319-.038-.79-.003Zm-10.72-.95c.405.077.256-.364.486-.246.454-.362-2.706.423-.486.246Zm9.494 1.754-.304-.357-.481.282.785.075Zm-6.751-.302 1.364.107c-.021-.06.153-.094.367-.119a6.727 6.727 0 0 0-1.731.012Zm1.732-.015c.367.02.736.004 1.099-.052-.237.003-.747.014-1.099.052Zm3.145.41-.403-.077-.964-.032 1.367.109Zm-19.555-.5-1.489.11c-.151.121.255.193.81.142.356-.088.909-.136.679-.252Zm4.507.973a1.552 1.552 0 0 1-.658-.27l-.046.439.704-.17Zm-4.344.1c-.148.118-2.16.358-.273.32.152-.119 1.644-.22.273-.32Zm-22.447-.325.379-.014-.068-.719-.311.733Zm-19.719 2.243c1.768.117.404-.457 2.004-.29.408-.183-1.307-.135-.89-.291-1.057.207-1.619.123-1.114.58Zm1.115-.588a6.82 6.82 0 0 0 .538-.126c-.183.027-.363.07-.538.127ZM20.236 42.397l-1.114.287.775-.052.34-.235Zm-1.824 1.312-.425-.324-.475.64c.276-.164.582-.271.9-.316Zm150.96-33.062.073-.12a1.99 1.99 0 0 0-.981-.036l.908.156Zm-15.28 1.506.264-.025-.544-.348.28.373Zm-12.68 2.323c.523-.058 1.121-.238 1.645-.295-1.122.234-1.863-.2-1.645.295Z"/>
</svg>
