<svg width="226" height="226" viewBox="0 0 226 226" fill="none" xmlns="http://www.w3.org/2000/svg" class="circle__message">
<path d="M107.306 0.105721C107.683 0.110708 108.255 0.105721 108.863 0.0887659C109.526 0.0668238 110.025 0.0319158 110.419 0V0.0897633C109.76 0.219421 109.53 0.317164 109.58 1.75038L109.907 11.4428C110.367 11.0396 110.851 10.6639 111.355 10.3178L111.455 10.5123C110.372 11.3022 109.025 12.2627 108.741 13.4046H108.651L108.259 1.79527C108.21 0.362045 107.976 0.280261 107.309 0.199474L107.306 0.105721Z" fill="black"/>
<path d="M105.426 6.51255C105.804 9.86072 104.588 13.4273 101.511 13.7764C98.435 14.1255 96.4518 10.9229 96.0735 7.57375C95.5419 2.87115 97.8824 0.80161 100.034 0.557254C102.149 0.316888 104.893 1.80895 105.426 6.51255M97.769 7.59769C98.2448 11.8016 99.4385 13.5969 101.482 13.3645C103.491 13.1371 104.254 11.1194 103.778 6.91549C103.295 2.64076 102.072 0.74077 100.08 0.967173C98.0527 1.19757 97.2851 3.32296 97.769 7.59868" fill="black"/>
<path d="M73.5833 6.73763C73.9486 6.64887 74.5032 6.50425 75.0876 6.3317C75.7227 6.1442 76.4047 5.92478 76.78 5.79711L76.8049 5.88289C76.108 6.1821 76.0005 6.38157 76.108 6.74262C76.224 7.03474 76.357 7.31981 76.5062 7.59637L80.3113 15.3509L81.3069 4.64814L81.3925 4.62321L88.1375 12.9881L87.2524 5.2705C87.2158 4.85021 87.1435 4.4338 87.0364 4.02578C87.0184 3.89112 86.9723 3.76177 86.901 3.6462C86.8297 3.53064 86.7348 3.43148 86.6226 3.3552C86.5103 3.27893 86.3833 3.22727 86.2498 3.20361C86.1162 3.17996 85.9792 3.18483 85.8477 3.21791L85.8228 3.13214C86.2051 3.03839 86.897 2.85288 87.5322 2.66637C88.1156 2.49482 88.2997 2.42201 88.6552 2.29834L88.6801 2.38411C87.8408 2.89277 87.7253 3.58096 87.9085 5.28347L89.0116 16.096L88.926 16.1209L81.6971 7.05679L80.5492 18.5884L80.4636 18.6133L75.0517 7.79983C74.6396 6.96803 74.3797 6.78351 73.6081 6.82341L73.5833 6.73763Z" fill="black"/>
<path d="M68.981 8.83799C69.3354 8.71332 69.877 8.51284 70.4365 8.28345C71.0497 8.03411 71.5077 7.82865 71.8651 7.66309L71.899 7.74587C71.3255 8.09495 71.1443 8.26649 71.6829 9.59499L75.3018 18.5135C75.8414 19.842 76.0903 19.837 76.7434 19.6874L76.7772 19.7712C76.4059 19.9028 75.935 20.0704 75.3217 20.3247C74.7582 20.5541 74.2346 20.7875 73.8931 20.9451L73.8592 20.8623C74.4327 20.5132 74.6139 20.3426 74.0753 19.0132L70.4564 10.0947C69.9168 8.76618 69.6679 8.77116 69.0138 8.92077L68.981 8.83799Z" fill="black"/>
<path d="M55.9459 14.8439L70.1885 20.1828L69.4438 18.7516C65.3072 10.8025 65.3401 10.9063 64.0677 11.1047L64.0269 11.0249C64.3843 10.8584 64.8055 10.6589 65.3928 10.3517C65.9324 10.0705 66.3048 9.85303 66.6293 9.66553L66.6711 9.74532C65.8538 10.6569 65.7881 10.5701 69.9257 18.5222L71.7545 22.0359L71.643 22.0938L57.4572 16.7857L58.1939 18.201C62.3802 26.2448 62.3623 26.0932 63.5909 25.8957L63.6327 25.9755C63.2753 26.1421 62.8541 26.3415 62.2668 26.6487C61.7272 26.93 61.2911 27.1783 60.9665 27.3688L60.9257 27.2891C61.8068 26.3834 61.9044 26.4912 57.7678 18.5461L55.8643 14.8898L55.9459 14.8439Z" fill="black"/>
<path d="M51.2499 31.1468C52.4376 32.8533 52.6526 32.7236 53.7129 32.3336L53.7637 32.4075C53.4302 32.6189 52.9503 32.9321 52.4077 33.3111C51.91 33.6601 51.5117 33.9624 51.2131 34.1917L51.1623 34.1179C51.8462 33.3121 51.9906 33.1455 50.8238 31.4689L47.5942 26.8361C46.3348 25.0269 46.0411 23.7902 46.273 22.7749C46.5556 21.6884 47.2221 20.7415 48.1487 20.1099C49.0627 19.3929 50.1916 19.0063 51.3524 19.0128C52.6895 19.0836 53.7249 19.9104 54.81 21.4723L58.6181 26.9429C59.4374 28.1198 59.6794 28.0599 60.2837 27.7687L60.3354 27.8415C60.0019 28.0519 59.5808 28.3252 59.0412 28.7042C58.5434 29.0523 57.9799 29.4672 57.6813 29.7016L57.6305 29.6278C58.1661 29.1441 58.3543 28.8817 57.5309 27.7049L53.8354 22.3959C52.8109 20.9247 51.9707 20.0919 51.0478 19.9523C50.587 19.8818 50.1167 19.9053 49.6652 20.0215C49.2137 20.1377 48.7903 20.3442 48.4205 20.6285C48.024 20.877 47.6812 21.2024 47.4121 21.5855C47.143 21.9687 46.953 22.4019 46.8535 22.8596C46.7782 23.4775 46.8317 24.1042 47.0106 24.7003C47.1895 25.2963 47.4899 25.8487 47.8928 26.3225L51.2499 31.1468Z" fill="black"/>
<path d="M37.749 28.6672C38.0477 28.4338 38.4887 28.0688 38.9437 27.6698C39.4415 27.235 39.8108 26.8929 40.0966 26.6206L40.1553 26.6884C39.7262 27.2041 39.6077 27.4245 40.5466 28.5086L47.5016 36.5414C49.6381 34.6853 50.2743 34.1328 49.9288 32.913L49.9965 32.8542C50.3579 33.4895 50.4385 33.9662 51.0259 34.9736L50.9582 35.0324C50.5421 34.6335 50.2066 34.9028 47.637 37.1349C44.5816 39.7909 44.0669 40.2367 43.9683 40.9159L43.8867 40.9867C43.6454 40.3654 43.3661 39.7595 43.0504 39.1725L43.1321 39.1027C43.1732 39.1835 43.2233 39.2595 43.2814 39.3291C43.6448 39.749 44.1077 39.4897 46.5011 37.4101L39.551 29.3763C38.6122 28.2932 38.3782 28.379 37.8068 28.731L37.749 28.6672Z" fill="black"/>
<path d="M30.7351 38.901C29.6659 37.8428 29.6759 37.7291 29.1094 37.1816C30.3041 36.0187 30.552 35.7603 31.7068 34.5605C32.6506 33.5801 33.9299 32.2257 34.1778 31.9414L34.2425 32.0042C33.7447 32.7233 33.8314 33.0255 34.7065 33.8733L41.6227 40.5557C42.6531 41.5531 42.903 41.3945 43.5401 40.9137L43.6048 40.9766C43.343 41.2229 42.8831 41.6747 41.989 42.6033C40.0885 44.5771 39.0949 45.6094 38.5613 46.2148C38.4707 46.128 38.2139 45.9046 38.0078 45.7051C37.6473 45.3707 37.3187 45.0034 37.0261 44.608L37.0889 44.5442C38.2348 45.6522 38.6589 45.2882 40.4847 43.3922C40.8597 43.0537 41.1852 42.6639 41.4514 42.2343L37.6135 38.525C35.3237 40.8998 35.2291 41.0534 36.0087 42.1804L35.9459 42.2452C35.5597 41.8463 35.3008 41.572 34.7732 41.0614C34.0902 40.4021 33.8851 40.2275 33.4351 39.8176L33.4968 39.7528C34.7911 40.6295 34.9404 40.5258 37.2262 38.151L33.0449 34.1067C32.6254 34.3976 32.2447 34.7408 31.9119 35.128C29.9745 37.1417 29.7127 37.412 30.8018 38.8372L30.7351 38.901Z" fill="black"/>
<path d="M29.7505 41.0616C29.6485 40.9519 29.5405 40.848 29.4269 40.7504C28.292 39.8189 26.7976 40.4014 25.9016 41.4975C25.6821 41.7358 25.5152 42.0178 25.4119 42.3251C25.3086 42.6324 25.2712 42.9581 25.3021 43.2808C25.333 43.6036 25.4316 43.9162 25.5913 44.1982C25.7511 44.4802 25.9684 44.7253 26.2291 44.9174C28.9988 47.1895 32.33 42.9706 35.3486 45.4471C35.6928 45.7115 35.9781 46.0451 36.186 46.4266C36.3939 46.808 36.5199 47.2288 36.5558 47.6619C36.5917 48.095 36.5368 48.5309 36.3945 48.9414C36.2523 49.352 36.0259 49.7282 35.7299 50.0459C35.0728 50.8508 34.4426 51.168 34.0006 51.7085C33.9337 51.7856 33.8737 51.8683 33.8213 51.9559C33.5419 51.6771 33.2481 51.4131 32.9413 51.165C32.7342 50.9944 32.3877 50.7102 32.1687 50.5536L32.2374 50.4708C32.747 50.7961 33.3624 50.9115 33.955 50.7929C34.5476 50.6743 35.0715 50.3309 35.4172 49.8345C35.6181 49.6362 35.7743 49.3971 35.8752 49.1333C35.9762 48.8695 36.0195 48.5871 36.0023 48.3051C35.9852 48.0231 35.9079 47.7481 35.7757 47.4985C35.6435 47.249 35.4595 47.0307 35.2361 46.8583C32.5918 44.6891 29.2816 48.88 26.1117 46.2789C25.7232 45.9814 25.4009 45.606 25.1653 45.1768C24.9297 44.7475 24.786 44.2738 24.7434 43.7858C24.7008 43.2978 24.7601 42.8063 24.9177 42.3425C25.0753 41.8788 25.3277 41.4531 25.6587 41.0925C26.4183 40.163 27.0107 39.9765 27.5503 39.3102C27.6096 39.2426 27.662 39.1691 27.7066 39.0908C27.8156 39.2016 27.932 39.3049 28.055 39.4C28.3736 39.6613 28.7211 39.8299 29.0675 40.1141C29.3686 40.3563 29.6187 40.656 29.8032 40.9958L29.7505 41.0616Z" fill="black"/>
<path d="M17.4624 52.6848C17.6784 52.3757 18.0597 51.8101 18.3813 51.2945C18.7347 50.734 18.9866 50.2971 19.1778 49.957L19.2534 50.0049C18.9916 50.6233 18.9428 50.8686 20.1494 51.6336L28.2753 56.7721C29.4859 57.537 29.6989 57.3336 30.2256 56.7332L30.3013 56.781C30.0952 57.0743 29.7368 57.6108 29.0488 58.702C27.5933 61.0199 26.8327 62.2327 26.4345 62.9308C26.3289 62.864 26.0362 62.6974 25.7893 62.5448C25.369 62.2901 24.9731 61.9969 24.6066 61.6691L24.6544 61.5933C26.0014 62.4451 26.3469 62.0043 27.7466 59.7761C28.0452 59.3684 28.2848 58.9205 28.4585 58.4456L24.0252 55.642C22.277 58.4167 22.1535 58.6132 23.404 59.6166L23.3562 59.6924C22.8972 59.3812 22.4074 59.0501 21.7862 58.6571C20.9847 58.1504 20.8692 58.0986 20.3456 57.7884L20.3934 57.7126C21.6697 58.311 21.8329 58.1115 23.5712 55.3558L19.4496 52.7576C18.2389 51.9917 18.001 52.2021 17.5381 52.7357L17.4624 52.6848Z" fill="black"/>
<path d="M10.0583 66.1688C10.2455 65.8417 10.5223 65.339 10.7991 64.7964C11.0977 64.206 11.3297 63.7183 11.496 63.3592L11.5756 63.4001C11.3387 63.9437 11.476 64.2339 11.7747 64.3885C12.0721 64.5055 12.3833 64.5839 12.7006 64.6219L16.1771 65.2153L17.1139 63.3792C17.4066 62.8047 17.6924 62.2461 17.9622 61.6836L15.8715 59.4036C15.6016 59.0803 15.2828 58.8013 14.9267 58.5768C14.5603 58.3883 14.191 58.4412 13.8505 58.9518L13.7708 58.9109C13.9699 58.5678 14.2587 58.0333 14.5603 57.4428C14.8371 56.9002 14.9277 56.6848 15.083 56.3457L15.1626 56.3866C14.9386 57.2992 14.9994 57.6523 16.4658 59.269L24.2014 67.7835L24.1198 67.9431L11.8275 65.8756C10.6607 65.6761 10.5332 65.6552 10.143 66.2207L10.0583 66.1688ZM22.1764 66.2546L18.3634 62.1055C18.0866 62.6042 17.8337 63.1029 17.5729 63.6135L16.7097 65.3091L22.1764 66.2546Z" fill="black"/>
<path d="M12.1012 69.1725C11.9721 69.0988 11.8392 69.0322 11.7029 68.973C10.342 68.4245 9.08958 69.4268 8.56193 70.7394C8.42334 71.0325 8.34805 71.3516 8.34101 71.6759C8.33396 72.0002 8.39531 72.3223 8.52104 72.6212C8.64677 72.92 8.83405 73.189 9.07064 73.4104C9.30722 73.6318 9.58779 73.8007 9.894 73.906C13.2142 75.2455 15.1367 70.2238 18.7546 71.6839C19.162 71.8333 19.5338 72.0664 19.8459 72.3683C20.158 72.6703 20.4037 73.0342 20.567 73.4369C20.7303 73.8396 20.8078 74.2721 20.7943 74.7066C20.7808 75.141 20.6768 75.5679 20.4888 75.9596C20.1016 76.9241 19.5928 77.4158 19.334 78.0651C19.2922 78.1583 19.2588 78.2551 19.2344 78.3543C18.8844 78.1717 18.5252 78.0072 18.1582 77.8616C17.9093 77.7619 17.4942 77.5943 17.2383 77.5105L17.2781 77.4108C17.8614 77.5689 18.4831 77.4951 19.0133 77.2047C19.5436 76.9144 19.9413 76.4301 20.1235 75.8529C20.256 75.6036 20.3337 75.3287 20.3513 75.0468C20.3689 74.7649 20.3261 74.4825 20.2256 74.2185C20.1252 73.9546 19.9694 73.7153 19.7689 73.5167C19.5684 73.3181 19.3278 73.1649 19.0632 73.0672C15.8923 71.7876 13.9858 76.7765 10.1817 75.2425C9.72158 75.0751 9.30139 74.8133 8.94803 74.4739C8.59467 74.1345 8.31593 73.7249 8.12963 73.2714C7.94334 72.8178 7.85359 72.3304 7.86615 71.8401C7.8787 71.3498 7.99327 70.8676 8.20253 70.4242C8.65053 69.3102 9.16026 68.9551 9.48083 68.1572C9.51724 68.0748 9.54526 67.9889 9.56446 67.9009C9.70177 67.9738 9.84379 68.0374 9.98957 68.0914C10.3709 68.245 10.7532 68.3028 11.1683 68.4704C11.528 68.6117 11.8562 68.8228 12.134 69.0917L12.1012 69.1725Z" fill="black"/>
<path d="M4.49292 81.5711C4.61936 81.216 4.80354 80.6734 4.98075 80.089C5.17389 79.4546 5.30232 78.9689 5.39988 78.5859L5.4855 78.6119C5.3949 79.2781 5.41283 79.5274 6.77974 79.9453L16.9345 83.0372C17.7579 80.3263 18.0028 79.5205 17.063 78.6717L17.0889 78.5859C17.732 78.932 18.0536 79.2921 19.087 79.8326L19.0611 79.9184C18.4976 79.8027 18.3552 80.2096 17.3686 83.4681C16.1908 87.3448 15.9927 87.9971 16.2735 88.6255L16.2416 88.7252C15.7073 88.33 15.1495 87.968 14.5711 87.6411L14.6019 87.5413C14.6796 87.5877 14.762 87.6255 14.8478 87.654C15.3785 87.8156 15.6333 87.3498 16.5552 84.3128L6.40043 81.221C5.03053 80.8031 4.87721 81.0006 4.58153 81.604L4.49292 81.5711Z" fill="black"/>
<path d="M2.22724 91.0975C2.22724 91.7697 2.26109 92.1378 3.67579 92.3642L13.1685 93.8812C14.5822 94.1066 14.7186 93.8203 14.9317 93.1641L15.0203 93.178C14.9406 93.565 14.8351 94.1116 14.7595 94.5893C14.6041 95.5628 14.5603 96.0465 14.4608 96.6838C14.0685 99.1453 12.4527 99.9582 11.0032 99.7268C10.321 99.6176 9.70156 99.2643 9.25962 98.7325C8.81768 98.2006 8.58327 97.5262 8.59987 96.8344C8.3853 97.7543 7.83009 98.5582 7.04648 99.0836C6.26287 99.6091 5.30933 99.8169 4.37866 99.6649C3.89444 99.6138 3.42677 99.4594 3.00708 99.2121C2.58739 98.9648 2.22541 98.6304 1.94549 98.2313C1.66556 97.8322 1.47417 97.3776 1.38419 96.8982C1.29421 96.4189 1.30772 95.9257 1.42381 95.452C1.58111 94.4597 1.75633 93.7076 1.90866 92.7512C2.00821 92.0959 2.09383 91.4735 2.13764 91.0806L2.22724 91.0975ZM8.52222 94.4826L2.3706 93.5002C2.21217 93.9293 2.0932 94.3719 2.01518 94.8227C1.73642 96.5761 2.39848 97.8806 4.6614 98.2417C6.55298 98.5409 8.00651 97.723 8.45253 94.9254L8.52222 94.4826ZM8.94633 94.5504C8.64168 96.4634 9.02398 98.0492 11.1097 98.3833C11.4448 98.4664 11.7936 98.4779 12.1334 98.4171C12.4732 98.3563 12.7964 98.2246 13.0821 98.0304C13.3677 97.8362 13.6094 97.584 13.7913 97.2902C13.9733 96.9963 14.0915 96.6674 14.1382 96.3247C14.1918 96.0127 14.1934 95.6939 14.1432 95.3812L8.94633 94.5504Z" fill="black"/>
<path d="M2.45501 108.899C0.95668 108.777 0.89595 108.687 0.105469 108.627C0.275711 106.967 0.304582 106.609 0.416086 104.946C0.515643 103.586 0.622169 101.724 0.631129 101.348L0.72073 101.354C0.803362 102.223 1.06022 102.402 2.27481 102.487L11.8621 103.157C13.2908 103.257 13.3824 102.976 13.5616 102.198L13.6512 102.204C13.6084 102.561 13.5456 103.201 13.4521 104.491C13.2619 107.228 13.1614 108.659 13.1414 109.466C13.017 109.457 12.6765 109.451 12.3898 109.431C11.8989 109.406 11.4113 109.335 10.9333 109.22L10.9392 109.132C12.5322 109.242 12.6208 108.692 12.8039 106.063C12.875 105.562 12.875 105.054 12.8039 104.553L7.48263 104.181C7.25365 107.472 7.27655 107.654 8.59667 108.016L8.5907 108.104C8.03816 108.047 7.66482 108.005 6.93208 107.952C5.98629 107.886 5.71749 107.885 5.1082 107.86L5.11417 107.771C6.66826 107.611 6.71704 107.434 6.94602 104.143L1.14285 103.737C1.00804 104.23 0.936446 104.739 0.929799 105.25C0.730686 108.042 0.708783 108.416 2.458 108.807L2.45501 108.899Z" fill="black"/>
<path d="M0.232963 120.429C0.242919 120.053 0.248892 119.479 0.232963 118.87C0.219025 118.206 0.190154 117.673 0.164269 117.274H0.252874C0.300662 117.865 0.551545 118.057 0.895016 118.05C1.21232 118.011 1.52344 117.933 1.82089 117.815L5.16202 116.687L5.12021 114.627C5.10627 113.981 5.09432 113.355 5.06346 112.732L2.14246 111.716C1.75206 111.56 1.33951 111.466 0.919905 111.437C0.508735 111.446 0.208074 111.667 0.149335 112.278H0.0607297C0.0706854 111.879 0.0756632 111.274 0.0607297 110.61C0.0477873 110 0.0258848 109.769 0 109.393H0.0896012C0.32356 110.302 0.54358 110.589 2.59943 111.314L13.4412 115.138V115.317L1.64269 119.327C0.522674 119.709 0.398227 119.747 0.32356 120.43L0.232963 120.429ZM10.9453 114.757L5.62695 112.913C5.62098 113.488 5.63193 114.042 5.64388 114.617L5.6827 116.512L10.9453 114.757Z" fill="black"/>
<path d="M12.0115 130.054C14.0703 129.787 14.0564 129.536 14.2018 128.414L14.2904 128.402C14.3232 128.796 14.379 129.367 14.4636 130.025C14.5422 130.629 14.6239 131.122 14.6896 131.497L14.601 131.508C14.2028 130.528 14.1231 130.323 12.0991 130.584L6.508 131.308C4.32472 131.591 3.0932 131.28 2.30173 130.61C1.47028 129.857 0.9397 128.827 0.808375 127.712C0.594383 126.568 0.772612 125.385 1.31412 124.356C1.99509 123.202 3.2057 122.66 5.08932 122.42L11.6929 121.565C13.1136 121.381 13.1723 121.138 13.1932 120.468L13.2819 120.457C13.3147 120.851 13.3615 121.355 13.4461 122.009C13.5248 122.613 13.6323 123.306 13.698 123.676L13.6094 123.688C13.4292 122.989 13.2838 122.699 11.8632 122.883L5.45569 123.713C3.68059 123.944 2.55361 124.306 2.00206 125.065C1.72672 125.442 1.53028 125.871 1.42455 126.325C1.31882 126.78 1.30598 127.252 1.3868 127.712C1.42348 128.179 1.55309 128.634 1.76801 129.05C1.98293 129.467 2.27881 129.836 2.63823 130.136C3.15105 130.489 3.73161 130.732 4.3431 130.849C4.95459 130.966 5.58366 130.954 6.19042 130.815L12.0115 130.054Z" fill="black"/>
<path d="M3.57611 140.908C3.50642 140.538 3.38994 139.976 3.24857 139.383C3.09426 138.738 2.96085 138.253 2.85034 137.874L2.93696 137.853C3.19481 138.474 3.33518 138.679 4.72898 138.346L15.05 135.873C14.392 133.118 14.1958 132.298 12.9593 132.043L12.9384 131.956C13.6682 131.929 14.1271 132.077 15.29 132.019L15.3109 132.106C14.7663 132.292 14.8489 132.714 15.6394 136.027C16.5802 139.968 16.7345 140.63 17.294 141.032L17.3189 141.132C16.6578 141.059 15.9928 141.027 15.3278 141.037L15.3029 140.937C15.3936 140.938 15.4841 140.929 15.5727 140.909C16.1123 140.78 16.0954 140.25 15.3587 137.163L5.0396 139.634C3.6458 139.967 3.61494 140.215 3.66372 140.885L3.57611 140.908Z" fill="black"/>
<path d="M6.74107 151.228C6.63554 150.867 6.46529 150.319 6.26718 149.742C6.05114 149.115 5.86895 148.645 5.72559 148.279L5.81021 148.249C6.14472 148.836 6.28808 149.033 7.64106 148.564L10.1788 147.687L15.8226 141.924C16.4777 141.243 16.7406 140.961 16.6649 140.248L16.7495 140.218C16.855 140.579 17.101 141.348 17.2991 141.925C17.5151 142.552 17.7073 143.055 17.8526 143.421L17.768 143.45C17.5131 142.931 17.2702 142.77 16.9636 142.874C16.6436 143.021 16.3628 143.242 16.1442 143.519L11.3555 148.36L16.1572 149.052C18.2259 149.341 18.5545 149.418 19.0791 149.237C19.4176 149.119 19.5391 148.868 19.4485 148.33L19.5331 148.301C19.6446 148.679 19.7093 148.922 19.9254 149.55C20.1245 150.125 20.2639 150.475 20.4033 150.826L20.3186 150.855C19.8746 150.118 19.8368 150.226 16.1173 149.653L10.8627 148.855L8.07513 149.82C6.72215 150.288 6.73011 150.532 6.82768 151.199L6.74107 151.228Z" fill="black"/>
<path d="M16.8799 172.262C16.7027 171.929 16.4239 171.428 16.1113 170.904C15.7708 170.335 15.499 169.913 15.281 169.584L15.3577 169.538C15.7897 170.052 15.9859 170.206 17.2144 169.469L25.5244 164.489C24.9491 164.281 24.3866 164.039 23.8399 163.764L23.9624 163.585C25.177 164.153 26.6673 164.868 27.8013 164.565L27.8471 164.642L17.8914 170.608C16.6629 171.344 16.7047 171.59 16.9526 172.215L16.8799 172.262Z" fill="black"/>
<path d="M23.3858 170.802C26.1276 168.848 29.8331 168.187 31.6281 170.715C33.4231 173.243 31.5863 176.533 28.8405 178.487C24.9906 181.232 22.0477 180.183 20.7923 178.415C19.5578 176.676 19.5319 173.546 23.3808 170.802M28.039 176.985C31.4807 174.533 32.4703 172.616 31.2776 170.935C30.1049 169.284 27.9743 169.593 24.5317 172.047C21.0312 174.541 19.964 176.536 21.1268 178.171C22.3096 179.837 24.5396 179.48 28.04 176.985" fill="black"/>
<path d="M38.9796 198.612C38.7248 198.335 38.3315 197.914 37.8994 197.489C37.4295 197.023 36.9039 196.53 36.6162 196.265L36.6789 196.201C37.2762 196.668 37.5032 196.666 37.768 196.4C37.9672 196.157 38.152 195.901 38.3216 195.636L43.2636 188.555L33.4244 192.844L33.3607 192.781L37.4176 182.823L31.0967 187.326C30.7473 187.562 30.4182 187.826 30.1131 188.117C30.0041 188.198 29.9134 188.301 29.8469 188.419C29.7803 188.538 29.7395 188.669 29.727 188.804C29.7145 188.939 29.7306 189.076 29.7743 189.204C29.818 189.333 29.8884 189.451 29.9807 189.55L29.918 189.613C29.6502 189.323 29.1544 188.805 28.6845 188.338C28.2524 187.909 28.1001 187.783 27.8203 187.531L27.884 187.467C28.7333 187.958 29.3903 187.727 30.7911 186.745L39.7104 180.561L39.7741 180.625L35.3418 191.344L45.9765 186.784L46.0402 186.847L39.1997 196.816C38.671 197.579 38.6352 197.896 39.0424 198.555L38.9796 198.612Z" fill="black"/>
<path d="M43.0256 201.63C42.7449 201.379 42.3118 201.003 41.8399 200.619C41.3262 200.201 40.926 199.898 40.6084 199.662L40.6651 199.593C41.2466 199.929 41.4835 200.005 42.3865 198.895L48.4465 191.422C49.3495 190.308 49.225 190.091 48.779 189.59L48.8348 189.521C49.1335 189.783 49.5068 190.113 50.0205 190.532C50.4924 190.917 50.9484 191.264 51.252 191.488L51.1963 191.558C50.6139 191.223 50.3769 191.145 49.4749 192.256L43.4149 199.729C42.5119 200.842 42.6364 201.059 43.0824 201.56L43.0256 201.63Z" fill="black"/>
<path d="M54.5543 210.189L52.375 195.11L51.479 196.452C46.5121 203.909 46.5858 203.832 47.3703 204.85L47.3205 204.924C47.0029 204.69 46.6236 204.417 46.0751 204.049C45.5693 203.711 45.2019 203.486 44.8804 203.293L44.9301 203.218C46.1248 203.496 46.077 203.596 51.0439 196.137L53.2392 192.845L53.3387 192.915L55.516 207.929L56.4001 206.602C61.4277 199.056 61.3033 199.145 60.5387 198.16L60.5885 198.085C60.906 198.319 61.2853 198.593 61.8339 198.961C62.3397 199.299 62.7667 199.56 63.0893 199.759L63.0395 199.834C61.8239 199.495 61.8727 199.356 56.9058 206.815L54.622 210.245L54.5543 210.189Z" fill="black"/>
<path d="M71.0826 206.473C72.0045 204.609 71.7865 204.478 70.9353 203.739L70.9751 203.659C71.3195 203.85 71.8253 204.121 72.4186 204.415C72.9642 204.686 73.4212 204.891 73.7657 205.043L73.7258 205.124C72.6924 204.911 72.4764 204.864 71.5704 206.696L69.0686 211.756C68.0919 213.732 67.1511 214.586 66.1515 214.871C65.0649 215.146 63.9156 215.017 62.917 214.507C61.8485 214.05 60.9654 213.246 60.4111 212.223C59.8297 211.014 60.0577 209.707 60.8989 208.004L63.8538 202.027C64.488 200.741 64.3197 200.558 63.7741 200.167L63.814 200.086C64.1584 200.277 64.6005 200.516 65.1928 200.81C65.7384 201.08 66.3716 201.375 66.717 201.526L66.6772 201.607C65.9952 201.369 65.6757 201.331 65.0395 202.615L62.1733 208.416C61.3768 210.023 61.0552 211.163 61.3768 212.043C61.5369 212.482 61.7839 212.884 62.103 213.224C62.4221 213.565 62.8066 213.837 63.2335 214.025C63.6421 214.253 64.092 214.397 64.5569 214.449C65.0217 214.5 65.4922 214.458 65.9405 214.324C66.5187 214.093 67.0426 213.744 67.4789 213.299C67.9152 212.854 68.2545 212.323 68.4752 211.74L71.0826 206.473Z" fill="black"/>
<path d="M75.4203 219.515C75.0738 219.367 74.5432 219.153 73.9717 218.942C73.3505 218.712 72.8766 218.556 72.4993 218.435L72.5301 218.351C73.1882 218.48 73.4371 218.476 73.9329 217.13L77.6055 207.157C74.9523 206.176 74.1639 205.885 73.2629 206.776L73.1783 206.745C73.5606 206.121 73.9379 205.82 74.5352 204.819L74.6198 204.85C74.4725 205.407 74.8687 205.573 78.0595 206.752C81.8546 208.154 82.4918 208.389 83.1369 208.148L83.2365 208.185C82.8098 208.696 82.4148 209.233 82.0537 209.793L81.9542 209.756C82.005 209.681 82.0475 209.601 82.0806 209.516C82.2728 208.995 81.8228 208.719 78.851 207.615L75.1784 217.589C74.6806 218.936 74.8707 219.1 75.4541 219.43L75.4203 219.515Z" fill="black"/>
<path d="M87.7502 220.722C87.3421 222.172 87.2365 222.218 87.0324 222.98C85.4395 222.495 85.0931 222.401 83.4852 221.968C82.1711 221.614 80.3691 221.148 80.0007 221.071L80.0246 220.984C80.8918 221.07 81.1197 220.851 81.4323 219.673L83.9302 210.375C84.3026 208.99 84.0437 208.845 83.316 208.52L83.3389 208.434C83.6804 208.544 84.2976 208.733 85.5421 209.064C88.1873 209.778 89.5701 210.15 90.3566 210.325C90.3238 210.446 90.2571 210.78 90.1784 211.057C90.0601 211.537 89.8978 212.004 89.6936 212.453L89.607 212.43C90.0201 210.889 89.4984 210.692 86.9578 210.008C86.4805 209.843 85.9825 209.746 85.4783 209.72L84.0925 214.88C87.2734 215.737 87.4555 215.75 88.0628 214.52L88.1495 214.543C87.9882 215.076 87.8727 215.434 87.6825 216.145C87.4366 217.062 87.3839 217.328 87.2425 217.92L87.1559 217.897C87.2963 216.338 87.133 216.256 83.9521 215.404L82.4409 221.032C82.8983 221.259 83.3827 221.426 83.8824 221.531C86.5794 222.258 86.9418 222.355 87.6656 220.71L87.7502 220.722Z" fill="black"/>
<path d="M90.1258 220.543C90.0794 220.686 90.0408 220.831 90.0104 220.977C89.7475 222.423 90.979 223.451 92.3699 223.704C92.6842 223.781 93.0112 223.79 93.3295 223.732C93.6477 223.674 93.9502 223.549 94.217 223.366C94.4838 223.182 94.7091 222.945 94.878 222.668C95.0469 222.392 95.1557 222.083 95.1973 221.761C95.8394 218.233 90.542 217.357 91.2429 213.513C91.3071 213.083 91.4603 212.672 91.6927 212.305C91.9251 211.938 92.2315 211.624 92.5923 211.383C92.9531 211.141 93.3602 210.978 93.7876 210.904C94.2149 210.83 94.6531 210.846 95.0738 210.952C96.0953 211.138 96.6777 211.536 97.3636 211.662C97.4619 211.683 97.5619 211.695 97.6623 211.699C97.5542 212.078 97.4658 212.464 97.3975 212.853C97.3487 213.117 97.269 213.558 97.2382 213.826L97.1327 213.807C97.1699 213.204 96.9733 212.609 96.5838 212.148C96.1943 211.686 95.642 211.392 95.042 211.329C94.7719 211.249 94.4878 211.228 94.2089 211.267C93.93 211.306 93.6626 211.404 93.4248 211.555C93.187 211.706 92.9842 211.907 92.83 212.143C92.6759 212.379 92.574 212.646 92.5311 212.924C91.9179 216.293 97.1794 217.163 96.4447 221.203C96.3736 221.688 96.2021 222.153 95.9413 222.568C95.6805 222.983 95.3362 223.339 94.9302 223.613C94.5243 223.887 94.0657 224.073 93.5839 224.159C93.102 224.245 92.6075 224.23 92.1319 224.114C90.9522 223.898 90.5032 223.47 89.6579 223.316C89.5703 223.297 89.4809 223.286 89.3911 223.285C89.4343 223.136 89.4675 222.983 89.4907 222.829C89.5643 222.423 89.5434 222.037 89.6241 221.597C89.6896 221.215 89.83 220.851 90.0372 220.524L90.1258 220.543Z" fill="black"/>
<path d="M106.219 225.682C105.845 225.642 105.167 225.582 104.56 225.551C103.898 225.512 103.397 225.501 103.002 225.496V225.407C103.669 225.338 103.907 225.262 103.99 223.83L104.545 214.217C104.627 212.785 104.345 212.696 103.567 212.522L103.572 212.432C103.928 212.47 104.567 212.526 105.862 212.601C108.596 212.759 110.025 212.842 110.832 212.853C110.825 212.979 110.823 213.32 110.806 213.606C110.787 214.098 110.722 214.588 110.614 215.068L110.525 215.063C110.617 213.467 110.066 213.384 107.439 213.232C106.938 213.167 106.431 213.174 105.932 213.252L105.634 218.497C108.903 218.686 109.136 218.697 109.407 217.117L109.497 217.122C109.447 217.675 109.397 218.266 109.352 219C109.297 219.948 109.308 220.075 109.29 220.684H109.202C109.102 219.277 108.855 219.227 105.604 219.039L105.323 223.908C105.24 225.34 105.539 225.448 106.23 225.594L106.219 225.682Z" fill="black"/>
<path d="M121.569 225.654C121.192 225.648 120.619 225.649 120.012 225.668C119.35 225.689 118.817 225.723 118.419 225.754V225.664C119.008 225.611 119.197 225.353 119.186 225.012C119.145 224.694 119.063 224.383 118.942 224.087L117.782 220.749L115.724 220.814C115.08 220.834 114.453 220.854 113.832 220.892L112.85 223.829C112.697 224.222 112.608 224.636 112.584 225.057C112.597 225.47 112.822 225.767 113.432 225.82V225.91C113.034 225.904 112.428 225.91 111.767 225.926C111.159 225.945 110.927 225.971 110.552 226V225.911C111.458 225.666 111.736 225.443 112.443 223.374L116.15 212.475L116.329 212.469L120.459 224.253C120.857 225.37 120.892 225.495 121.574 225.564L121.569 225.654ZM115.794 214.983L114.007 220.33C114.581 220.33 115.135 220.313 115.708 220.296L117.599 220.236L115.794 214.983Z" fill="black"/>
<path d="M123.201 222.417C123.198 222.567 123.204 222.717 123.219 222.866C123.394 224.325 124.874 224.942 126.278 224.772C126.601 224.752 126.916 224.665 127.203 224.515C127.489 224.365 127.741 224.156 127.942 223.902C128.143 223.648 128.288 223.354 128.367 223.04C128.447 222.726 128.46 222.398 128.404 222.079C127.976 218.519 122.657 219.252 122.191 215.372C122.125 214.942 122.15 214.504 122.264 214.084C122.377 213.665 122.577 213.274 122.851 212.936C123.124 212.599 123.465 212.323 123.851 212.125C124.238 211.928 124.661 211.813 125.094 211.789C126.125 211.666 126.799 211.873 127.492 211.789C127.592 211.78 127.692 211.762 127.79 211.735C127.799 212.131 127.828 212.525 127.878 212.917C127.911 213.184 127.963 213.628 128.014 213.894L127.908 213.907C127.765 213.318 127.401 212.808 126.892 212.482C126.383 212.157 125.767 212.041 125.175 212.159C124.893 212.163 124.615 212.227 124.36 212.348C124.105 212.468 123.879 212.642 123.696 212.857C123.514 213.073 123.38 213.325 123.302 213.596C123.225 213.868 123.207 214.153 123.249 214.432C123.659 217.831 128.942 217.103 129.432 221.178C129.507 221.663 129.48 222.158 129.354 222.632C129.227 223.105 129.003 223.547 128.696 223.929C128.389 224.311 128.006 224.625 127.572 224.85C127.137 225.076 126.66 225.208 126.171 225.238C124.977 225.381 124.425 225.105 123.572 225.208C123.483 225.216 123.394 225.232 123.308 225.258C123.306 225.102 123.293 224.947 123.27 224.793C123.222 224.384 123.087 224.021 123.033 223.576C122.984 223.192 123.01 222.802 123.112 222.428L123.201 222.417Z" fill="black"/>
<path d="M137.709 223.132C137.338 223.191 136.773 223.291 136.178 223.416C135.53 223.553 135.043 223.672 134.662 223.771L134.644 223.684C135.27 223.443 135.479 223.307 135.185 221.903L133.009 211.502C130.241 212.083 129.418 212.256 129.126 213.489L129.039 213.507C129.032 212.776 129.193 212.321 129.168 211.153L129.256 211.135C129.426 211.686 129.853 211.616 133.177 210.917C137.136 210.086 137.801 209.946 138.218 209.402L138.322 209.38C138.231 210.041 138.181 210.707 138.172 211.375L138.067 211.397C138.071 211.306 138.064 211.215 138.047 211.126C137.934 210.582 137.404 210.584 134.303 211.234L136.478 221.64C136.772 223.044 137.018 223.083 137.688 223.053L137.709 223.132Z" fill="black"/>
<path d="M147.137 220.533C147.723 220.208 148.033 220.003 147.548 218.652L144.306 209.587C143.823 208.237 143.509 208.255 142.829 208.383L142.799 208.299C143.176 208.183 143.704 208.012 144.159 207.849C145.086 207.516 145.528 207.318 146.135 207.101C148.478 206.26 149.967 207.288 150.462 208.672C150.695 209.323 150.684 210.036 150.432 210.68C150.18 211.324 149.704 211.854 149.091 212.173C149.999 211.919 150.97 212.019 151.807 212.454C152.644 212.889 153.284 213.627 153.599 214.517C153.788 214.967 153.878 215.452 153.864 215.94C153.849 216.427 153.731 216.906 153.517 217.344C153.302 217.782 152.996 218.169 152.62 218.479C152.244 218.789 151.806 219.014 151.335 219.14C150.393 219.479 149.649 219.687 148.739 220.015C148.116 220.238 147.531 220.467 147.167 220.613L147.137 220.533ZM146.923 212.971C148.743 212.318 149.947 211.22 149.235 209.227C149.146 208.893 148.988 208.581 148.771 208.312C148.555 208.043 148.284 207.823 147.976 207.666C147.669 207.508 147.332 207.418 146.988 207.399C146.643 207.381 146.298 207.436 145.976 207.559C145.678 207.663 145.398 207.815 145.149 208.009L146.923 212.971ZM147.068 213.376L149.17 219.251C149.622 219.183 150.067 219.074 150.499 218.925C152.168 218.327 152.988 217.117 152.217 214.957C151.571 213.151 150.153 212.264 147.49 213.225L147.068 213.376Z" fill="black"/>
<path d="M162.612 211.746C163.227 213.121 163.177 213.223 163.508 213.941C161.975 214.593 161.649 214.743 160.138 215.444C158.904 216.016 157.221 216.816 156.888 216.991L156.85 216.909C157.57 216.417 157.603 216.105 157.092 214.999L153.053 206.26C152.455 204.957 152.157 205.013 151.393 205.231L151.355 205.149C151.688 205.014 152.28 204.76 153.446 204.217C155.935 203.064 157.229 202.462 157.947 202.09C158 202.205 158.159 202.506 158.279 202.766C158.495 203.209 158.669 203.671 158.799 204.145L158.717 204.183C158.048 202.734 157.523 202.919 155.133 204.027C154.661 204.207 154.217 204.453 153.814 204.758L156.055 209.608C159.042 208.222 159.191 208.112 158.871 206.779L158.952 206.743C159.169 207.254 159.312 207.603 159.619 208.271C160.018 209.133 160.147 209.368 160.416 209.915L160.334 209.953C159.444 208.667 159.266 208.708 156.277 210.096L158.722 215.382C159.219 215.262 159.698 215.08 160.148 214.839C162.682 213.663 163.023 213.506 162.522 211.781L162.612 211.746Z" fill="black"/>
<path d="M173.847 208.068C173.512 208.241 173.008 208.515 172.482 208.821C171.91 209.154 171.455 209.439 171.123 209.653L171.077 209.575C171.575 209.248 171.615 208.931 171.444 208.636C171.256 208.377 171.036 208.142 170.79 207.938L168.187 205.554L166.407 206.591C165.85 206.915 165.312 207.23 164.776 207.561L165.304 210.613C165.356 211.032 165.473 211.439 165.651 211.821C165.857 212.177 166.197 212.334 166.758 212.089L166.803 212.167C166.454 212.35 165.918 212.641 165.346 212.973C164.82 213.279 164.628 213.412 164.311 213.616L164.267 213.538C164.948 212.893 165.087 212.562 164.729 210.408L162.822 199.054L162.976 198.964L172.196 207.369C173.072 208.167 173.166 208.256 173.799 207.991L173.847 208.068ZM163.703 201.425L164.668 206.981C165.172 206.707 165.651 206.429 166.146 206.141L167.787 205.186L163.703 201.425Z" fill="black"/>
<path d="M176.535 193.077C175.303 191.403 175.092 191.537 174.046 191.956L173.994 191.883C174.321 191.664 174.79 191.338 175.326 190.944C175.815 190.583 176.209 190.27 176.5 190.032L176.553 190.104C175.891 190.928 175.75 191.101 176.961 192.744L180.306 197.29C181.613 199.065 181.939 200.295 181.734 201.315C181.48 202.409 180.839 203.373 179.929 204.029C179.034 204.772 177.916 205.19 176.754 205.215C175.416 205.179 174.359 204.377 173.233 202.847L169.281 197.479C168.432 196.324 168.191 196.39 167.595 196.698L167.542 196.625C167.87 196.405 168.284 196.126 168.817 195.727C169.306 195.365 169.858 194.936 170.15 194.698L170.202 194.77C169.679 195.268 169.499 195.535 170.348 196.69L174.183 201.901C175.245 203.344 176.108 204.154 177.038 204.27C177.5 204.328 177.97 204.291 178.418 204.163C178.866 204.035 179.284 203.817 179.646 203.524C180.036 203.265 180.371 202.93 180.63 202.54C180.889 202.149 181.067 201.711 181.155 201.251C181.214 200.63 181.144 200.003 180.949 199.411C180.755 198.819 180.439 198.273 180.023 197.81L176.535 193.077Z" fill="black"/>
<path d="M190.095 195.207C189.805 195.447 189.37 195.822 188.921 196.233C188.432 196.681 188.075 197.031 187.796 197.312L187.735 197.245C188.151 196.718 188.264 196.494 187.297 195.436L180.136 187.587C178.045 189.499 177.427 190.067 177.804 191.277L177.739 191.337C177.361 190.711 177.268 190.24 176.655 189.243L176.721 189.182C177.147 189.57 177.476 189.292 179.987 186.993C182.973 184.26 183.471 183.802 183.555 183.119L183.634 183.046C183.892 183.662 184.186 184.261 184.517 184.841L184.438 184.914C184.394 184.834 184.342 184.76 184.283 184.692C183.908 184.281 183.453 184.553 181.115 186.694L188.275 194.543C189.241 195.602 189.469 195.51 190.035 195.141L190.095 195.207Z" fill="black"/>
<path d="M197.59 187.436C197.325 187.703 196.928 188.117 196.52 188.57C196.076 189.062 195.754 189.446 195.504 189.751L195.437 189.692C195.787 189.115 195.89 188.894 194.828 187.932L192.837 186.13L185.071 183.963C184.158 183.717 183.787 183.622 183.2 184.032L183.133 183.973C183.398 183.705 183.951 183.118 184.359 182.666C184.803 182.174 185.149 181.762 185.401 181.457L185.467 181.517C185.137 181.992 185.113 182.284 185.352 182.501C185.635 182.71 185.963 182.85 186.311 182.908L192.857 184.771L191.142 180.225C190.396 178.27 190.304 177.945 189.892 177.572C189.626 177.331 189.347 177.345 188.921 177.684L188.854 177.624C189.131 177.344 189.313 177.17 189.756 176.677C190.164 176.224 190.403 175.933 190.641 175.642L190.708 175.701C190.277 176.446 190.39 176.429 191.686 179.968L193.525 184.965L195.715 186.948C196.777 187.909 196.987 187.785 197.524 187.376L197.59 187.436Z" fill="black"/>
<path d="M211.07 168.426C210.865 168.741 210.561 169.224 210.253 169.755C209.918 170.327 209.681 170.77 209.498 171.119L209.421 171.074C209.663 170.447 209.702 170.2 208.467 169.478L200.109 164.582C200.204 165.187 200.263 165.797 200.286 166.409L200.071 166.386C199.983 165.047 199.89 163.394 199.076 162.545L199.12 162.468L209.131 168.332C210.366 169.056 210.562 168.901 210.989 168.382L211.07 168.426Z" fill="black"/>
<path d="M206.665 163.408C203.635 161.944 201.271 159.012 202.616 156.218C203.961 153.424 207.723 153.45 210.753 154.915C215.009 156.97 215.51 160.058 214.569 162.012C213.644 163.934 210.921 165.464 206.665 163.408M209.829 156.339C206.025 154.502 203.873 154.556 202.978 156.414C202.1 158.239 203.398 159.96 207.202 161.799C211.07 163.668 213.327 163.644 214.198 161.835C215.084 159.994 213.7 158.21 209.829 156.342" fill="black"/>
<path d="M223.441 136.293C223.322 136.651 223.149 137.198 222.982 137.784C222.802 138.422 222.625 139.118 222.534 139.502L222.449 139.477C222.567 138.728 222.457 138.529 222.094 138.426C221.786 138.37 221.474 138.331 221.161 138.311L212.582 137.407L221.092 143.955L221.067 144.041L210.406 145.305L217.398 148.665C217.773 148.858 218.163 149.019 218.565 149.145C218.688 149.202 218.822 149.232 218.958 149.233C219.094 149.234 219.228 149.206 219.352 149.152C219.477 149.097 219.588 149.017 219.679 148.916C219.77 148.816 219.839 148.697 219.881 148.568L219.967 148.592C219.843 148.967 219.631 149.652 219.45 150.287C219.285 150.874 219.251 151.068 219.162 151.435L219.077 151.411C219.094 150.429 218.579 149.965 217.04 149.217L207.317 144.394L207.342 144.308L218.851 143.005L209.723 135.888L209.748 135.801L221.766 136.971C222.689 137.065 222.983 136.944 223.359 136.273L223.441 136.293Z" fill="black"/>
<path d="M224.115 131.277C224.032 131.645 223.916 132.206 223.808 132.806C223.692 133.459 223.622 133.956 223.571 134.348L223.483 134.332C223.493 133.659 223.446 133.414 222.037 133.164L212.579 131.48C211.17 131.229 211.041 131.443 210.819 132.079L210.731 132.063C210.818 131.678 210.923 131.187 211.039 130.534C211.145 129.935 211.228 129.366 211.276 128.992L211.364 129.008C211.354 129.679 211.401 129.924 212.811 130.176L222.269 131.859C223.678 132.11 223.807 131.896 224.028 131.261L224.115 131.277Z" fill="black"/>
<path d="M225.993 117.017L213.889 126.243L215.495 126.376C224.414 127.108 224.308 127.081 224.818 125.899L224.908 125.906C224.857 126.298 224.802 126.761 224.747 127.422C224.698 128.029 224.68 128.459 224.668 128.837L224.578 128.829C224.244 127.65 224.352 127.641 215.433 126.909L211.49 126.585L211.5 126.46L223.547 117.266L221.959 117.135C212.932 116.395 213.07 116.46 212.582 117.607L212.493 117.6C212.543 117.208 212.6 116.744 212.653 116.084C212.703 115.476 212.726 114.974 212.739 114.598L212.828 114.605C213.126 115.835 212.977 115.858 221.896 116.59L226 116.928L225.993 117.017Z" fill="black"/>
<path d="M214.746 104.343C212.672 104.437 212.665 104.688 212.429 105.793H212.34C212.34 105.394 212.333 104.825 212.303 104.162C212.276 103.553 212.235 103.052 212.203 102.677H212.293C212.607 103.687 212.67 103.899 214.708 103.807L220.339 103.553C222.538 103.453 223.739 103.866 224.471 104.605C225.237 105.425 225.679 106.495 225.716 107.617C225.834 108.775 225.558 109.938 224.934 110.919C224.158 112.016 222.906 112.445 221.011 112.53L214.361 112.829C212.93 112.894 212.851 113.129 212.774 113.799H212.684C212.684 113.4 212.684 112.901 212.649 112.239C212.623 111.631 212.573 110.932 212.539 110.557H212.627C212.749 111.27 212.869 111.569 214.3 111.505L220.753 111.214C222.545 111.133 223.693 110.866 224.307 110.157C224.612 109.804 224.843 109.393 224.987 108.949C225.13 108.504 225.182 108.035 225.14 107.57C225.142 107.102 225.051 106.638 224.872 106.205C224.692 105.772 224.428 105.38 224.095 105.051C223.614 104.656 223.055 104.365 222.455 104.197C221.855 104.03 221.227 103.989 220.611 104.078L214.746 104.343Z" fill="black"/>
<path d="M224.06 94.2379C224.099 94.6129 224.167 95.1834 224.26 95.7858C224.359 96.4421 224.452 96.9358 224.528 97.3237L224.44 97.3377C224.235 96.6974 224.111 96.481 222.695 96.6954L212.199 98.2912C212.623 101.093 212.748 101.926 213.961 102.286L213.975 102.374C213.247 102.341 212.802 102.153 211.637 102.112L211.623 102.023C212.181 101.885 212.135 101.457 211.623 98.0877C211.018 94.0803 210.915 93.4061 210.395 92.9593L210.379 92.8525C211.032 92.9804 211.693 93.068 212.357 93.1148L212.373 93.2216C212.283 93.2113 212.192 93.2113 212.102 93.2216C211.553 93.3054 211.524 93.835 212.002 96.9737L222.498 95.3779C223.914 95.1635 223.968 94.9191 223.975 94.2469L224.06 94.2379Z" fill="black"/>
<path d="M219.171 82.8323C220.636 82.4912 220.727 82.561 221.491 82.3735C221.835 84.0052 221.92 84.3543 222.316 85.973C222.64 87.2965 223.101 89.1038 223.208 89.4638L223.121 89.4848C222.777 88.6869 222.479 88.5871 221.296 88.8804L211.963 91.1743C210.569 91.5154 210.569 91.8106 210.636 92.6075L210.55 92.6285C210.481 92.2754 210.351 91.6451 210.039 90.3914C209.387 87.7274 209.044 86.3341 208.821 85.5591C208.942 85.5292 209.268 85.4305 209.546 85.3596C210.022 85.2334 210.508 85.1513 210.998 85.1143L211.019 85.2011C209.472 85.5811 209.551 86.1336 210.177 88.6919C210.263 89.1903 210.419 89.6742 210.639 90.1291L215.816 88.8574C215.033 85.6539 214.955 85.4883 213.588 85.5472L213.567 85.4604C214.111 85.3457 214.479 85.2729 215.192 85.0993C216.114 84.8729 216.37 84.7911 216.956 84.6286L216.977 84.7154C215.547 85.3437 215.555 85.5262 216.338 88.7298L221.987 87.3434C221.965 86.8325 221.879 86.3264 221.729 85.8374C221.065 83.1206 220.975 82.7545 219.19 82.9161L219.171 82.8323Z" fill="black"/>
<path d="M217.87 80.8376C218.017 80.8098 218.163 80.7739 218.306 80.7299C219.7 80.2641 219.999 78.6872 219.555 77.3388C219.47 77.0257 219.321 76.7339 219.117 76.4826C218.912 76.2312 218.657 76.026 218.368 75.8802C218.079 75.7343 217.762 75.6513 217.439 75.6364C217.115 75.6216 216.793 75.6752 216.491 75.7939C213.096 76.9309 214.883 82.0045 211.183 83.2442C210.776 83.3954 210.342 83.4595 209.909 83.4325C209.476 83.4055 209.053 83.288 208.668 83.0876C208.283 82.8871 207.944 82.6081 207.673 82.2685C207.402 81.929 207.205 81.5363 207.094 81.1158C206.765 80.1294 206.832 79.4263 206.611 78.7631C206.581 78.6655 206.543 78.5708 206.497 78.4798C206.882 78.3917 207.261 78.2835 207.635 78.1556C207.89 78.0699 208.314 77.9283 208.563 77.8255L208.596 77.9252C208.05 78.1838 207.624 78.644 207.409 79.2096C207.193 79.7752 207.204 80.4024 207.439 80.9602C207.499 81.2362 207.618 81.496 207.787 81.7221C207.956 81.9482 208.171 82.1354 208.419 82.2711C208.666 82.4068 208.94 82.4879 209.221 82.5088C209.502 82.5297 209.784 82.4901 210.049 82.3925C213.292 81.3063 211.516 76.2666 215.403 74.9651C215.862 74.7936 216.351 74.7199 216.84 74.7488C217.329 74.7776 217.806 74.9084 218.242 75.1327C218.677 75.3569 219.061 75.6698 219.369 76.0512C219.677 76.4327 219.902 76.8743 220.03 77.3478C220.41 78.4878 220.253 79.0882 220.527 79.905C220.553 79.9911 220.586 80.0746 220.627 80.1544C220.475 80.1877 220.326 80.2314 220.18 80.285C219.79 80.4157 219.461 80.6202 219.037 80.7618C218.672 80.8883 218.285 80.9409 217.899 80.9164L217.87 80.8376Z" fill="black"/>
<path d="M214.592 64.2258C214.738 64.5729 215.016 65.1953 215.279 65.7448C215.565 66.3432 215.797 66.7891 215.985 67.1411L215.903 67.179C215.52 66.6275 215.338 66.4559 214.047 67.0793L205.379 71.2403C204.085 71.8607 204.146 72.1499 204.374 72.9159L204.294 72.9548C204.155 72.6237 203.895 72.0332 203.336 70.8693C202.153 68.3958 201.534 67.1012 201.154 66.3891C201.267 66.3353 201.565 66.1717 201.824 66.047C202.263 65.8259 202.721 65.6456 203.193 65.5084L203.232 65.5892C201.796 66.2784 201.986 66.804 203.124 69.1798C203.309 69.6503 203.561 70.0919 203.87 70.4913L208.599 68.2213C207.184 65.2621 207.083 65.0516 205.57 65.5802L205.532 65.4995C206.039 65.276 206.579 65.0357 207.242 64.7185C208.098 64.3076 208.202 64.2378 208.744 63.9575L208.783 64.0383C207.601 64.8043 207.677 65.0467 209.081 67.9889L213.472 65.8814C214.766 65.2621 214.712 64.9479 214.507 64.2707L214.592 64.2258Z" fill="black"/>
<path d="M207.134 50.772C207.311 51.1051 207.589 51.6068 207.901 52.1304C208.24 52.6999 208.53 53.1527 208.747 53.4828L208.669 53.5287C208.337 53.039 208.02 52.9981 207.728 53.1716C207.471 53.3623 207.24 53.5848 207.038 53.8339L204.689 56.4679L205.742 58.2393C206.072 58.7938 206.392 59.3364 206.729 59.863L209.769 59.3005C210.186 59.2437 210.591 59.1215 210.97 58.9384C211.324 58.728 211.475 58.3869 211.226 57.8264L211.302 57.7805C211.489 58.1286 211.784 58.6612 212.124 59.2317C212.435 59.7553 212.57 59.9468 212.778 60.26L212.701 60.3058C212.05 59.6306 211.719 59.494 209.572 59.878L198.261 61.9126L198.17 61.758L206.455 52.4306C207.241 51.5449 207.33 51.4502 207.058 50.8188L207.134 50.772ZM200.617 61.006L206.15 59.9747C205.873 59.476 205.589 58.9953 205.296 58.5026L204.325 56.8699L200.617 61.006Z" fill="black"/>
<path d="M203.502 50.9057C203.634 50.8347 203.762 50.7564 203.885 50.6713C205.074 49.8096 204.894 48.2138 204.065 47.0669C203.891 46.7933 203.661 46.5596 203.391 46.3811C203.12 46.2026 202.816 46.0832 202.496 46.0307C202.177 45.9783 201.85 45.994 201.537 46.0768C201.224 46.1596 200.932 46.3077 200.68 46.5113C197.781 48.6138 201.002 52.9184 197.841 55.2104C197.498 55.4764 197.103 55.6675 196.682 55.7715C196.261 55.8755 195.822 55.8901 195.395 55.8143C194.968 55.7385 194.561 55.574 194.201 55.3314C193.841 55.0888 193.536 54.7734 193.304 54.4055C192.696 53.5627 192.55 52.8715 192.141 52.306C192.083 52.2216 192.019 52.1425 191.948 52.0697C192.288 51.87 192.618 51.653 192.936 51.4194C193.153 51.2618 193.516 50.9985 193.723 50.8259L193.785 50.9127C193.341 51.323 193.072 51.8895 193.035 52.4938C192.998 53.0981 193.195 53.6934 193.586 54.1552C193.726 54.4004 193.917 54.6127 194.146 54.7777C194.375 54.9428 194.637 55.0568 194.913 55.1121C195.19 55.1674 195.475 55.1626 195.75 55.0982C196.024 55.0338 196.282 54.9112 196.505 54.7386C199.274 52.7309 196.073 48.4552 199.392 46.0475C199.779 45.7464 200.224 45.5294 200.699 45.4104C201.174 45.2915 201.668 45.2731 202.151 45.3566C202.633 45.44 203.093 45.6235 203.5 45.8951C203.908 46.1668 204.254 46.5207 204.518 46.9342C205.221 47.9066 205.25 48.53 205.753 49.2282C205.803 49.3029 205.861 49.3724 205.925 49.4356C205.791 49.513 205.661 49.5993 205.538 49.6939C205.204 49.9353 204.953 50.2295 204.59 50.4918C204.279 50.722 203.926 50.8881 203.551 50.9805L203.502 50.9057Z" fill="black"/>
<path d="M197.096 37.8564C197.328 38.1557 197.693 38.5985 198.091 39.0603C198.524 39.559 198.865 39.931 199.135 40.2172L199.068 40.2761C198.554 39.8442 198.334 39.7265 197.251 40.664L189.215 47.6097C191.063 49.7531 191.613 50.3904 192.831 50.0483L192.889 50.1161C192.254 50.4762 191.778 50.556 190.772 51.1434L190.713 51.0756C191.111 50.6597 190.843 50.3226 188.622 47.7444C185.979 44.6775 185.536 44.1618 184.856 44.0621L184.786 43.9803C185.407 43.7397 186.012 43.4612 186.598 43.1465L186.668 43.2283C186.587 43.2693 186.512 43.3191 186.442 43.3769C186.022 43.7399 186.28 44.2037 188.35 46.6054L196.382 39.6557C197.466 38.7182 197.377 38.4828 197.03 37.9103L197.096 37.8564Z" fill="black"/>
<path d="M190.271 30.8596C189.705 30.5016 189.375 30.332 188.429 31.4082L182.076 38.6311C181.129 39.7073 181.298 39.9756 181.737 40.5072L181.678 40.575C181.395 40.3007 180.99 39.9197 180.628 39.5996C179.89 38.9483 179.503 38.6551 179.02 38.2282C177.153 36.5805 177.328 34.7793 178.301 33.6752C178.758 33.1566 179.387 32.8213 180.071 32.7315C180.756 32.6416 181.449 32.8033 182.024 33.1865C181.363 32.5131 180.981 31.6133 180.957 30.669C180.933 29.7247 181.267 28.8064 181.893 28.0999C182.195 27.7175 182.576 27.4042 183.008 27.1812C183.441 26.9583 183.917 26.8307 184.403 26.8072C184.889 26.7837 185.375 26.8647 185.827 27.0448C186.28 27.225 186.688 27.5 187.026 27.8516C187.777 28.5158 188.32 29.0654 189.045 29.7057C189.542 30.1445 190.023 30.5455 190.33 30.7928L190.271 30.8596ZM183.768 34.7005C182.318 33.4199 180.781 32.8953 179.381 34.4821C179.131 34.7212 178.935 35.0101 178.805 35.3302C178.674 35.6503 178.613 35.9942 178.624 36.3398C178.635 36.6853 178.718 37.0246 178.868 37.3357C179.019 37.6468 179.233 37.9227 179.497 38.1454C179.733 38.358 180.002 38.5299 180.293 38.6541L183.768 34.7005ZM184.053 34.3773L188.17 29.6967C187.893 29.333 187.583 28.9955 187.245 28.6883C185.915 27.5144 184.457 27.3788 182.947 29.0993C181.68 30.5385 181.596 32.2081 183.717 34.0811L184.053 34.3773Z" fill="black"/>
<path d="M175.132 21.5243C176.036 20.3224 176.151 20.3175 176.618 19.6821C177.926 20.7134 178.211 20.9258 179.556 21.9142C180.651 22.7221 182.161 23.8092 182.475 24.0217L182.422 24.0935C181.646 23.6945 181.357 23.8192 180.635 24.8016L174.939 32.5562C174.091 33.7111 174.278 33.9395 174.84 34.508L174.786 34.5798C174.509 34.3534 174 33.9565 172.962 33.1915C170.756 31.5658 169.603 30.716 168.934 30.2662C169.008 30.1665 169.195 29.8802 169.365 29.6488C169.649 29.2465 169.969 28.8713 170.322 28.5278L170.394 28.5807C169.45 29.8663 169.865 30.2383 171.987 31.8002C172.371 32.1279 172.8 32.3992 173.261 32.606L176.422 28.3024C173.77 26.3475 173.604 26.2698 172.592 27.1933L172.52 27.1405C172.864 26.7036 173.101 26.4104 173.535 25.8189C174.097 25.054 174.241 24.8216 174.588 24.3229L174.66 24.3758C173.963 25.7771 174.086 25.9127 176.738 27.8665L180.185 23.1729C179.841 22.7948 179.451 22.4623 179.023 22.1835C176.775 20.5259 176.473 20.3025 175.205 21.5731L175.132 21.5243Z" fill="black"/>
<path d="M166.505 13.4365C166.817 13.646 167.301 13.9571 167.821 14.2723C168.387 14.6144 168.856 14.8767 169.204 15.0652L169.157 15.142C168.632 14.8677 168.335 14.9805 168.161 15.2727C168.023 15.5617 167.923 15.8675 167.863 16.1823L167.031 19.6152L168.795 20.6784C169.346 21.0115 169.883 21.3347 170.429 21.6439L172.846 19.711C173.186 19.4636 173.486 19.164 173.734 18.8233C173.947 18.4702 173.92 18.0982 173.435 17.7262L173.481 17.6494C173.809 17.8688 174.321 18.198 174.887 18.5411C175.409 18.8552 175.617 18.961 175.949 19.1395L175.903 19.2163C175.007 18.929 174.653 18.9649 172.942 20.3134L163.928 27.4526L163.775 27.3598L166.686 15.2198C166.961 14.0669 166.995 13.9412 166.458 13.5133L166.505 13.4365ZM165.579 25.5396L169.974 22.0169C169.493 21.7057 169.018 21.4185 168.527 21.1193L166.901 20.1388L165.579 25.5396Z" fill="black"/>
<path d="M152.092 18.2965C151.221 20.1845 151.441 20.3052 152.312 21.0243L152.275 21.1061C151.925 20.9245 151.413 20.6682 150.812 20.389C150.259 20.1336 149.797 19.9391 149.448 19.7975L149.485 19.7157C150.524 19.9003 150.741 19.9411 151.597 18.087L153.961 12.9606C154.885 10.9588 155.802 10.0801 156.794 9.76897C157.873 9.46487 159.026 9.56339 160.038 10.0462C161.118 10.4732 162.022 11.2535 162.603 12.2604C163.216 13.4572 163.025 14.7658 162.229 16.4912L159.441 22.5453C158.844 23.8478 159.014 24.0264 159.57 24.4024L159.533 24.4842C159.182 24.3026 158.736 24.0752 158.134 23.798C157.583 23.5416 156.939 23.2654 156.593 23.1238L156.63 23.042C157.318 23.2614 157.638 23.2913 158.24 21.9897L160.95 16.1142C161.7 14.4865 161.994 13.3386 161.646 12.4669C161.475 12.0327 161.217 11.6378 160.889 11.306C160.56 10.9742 160.169 10.7122 159.737 10.5359C159.323 10.3187 158.869 10.1866 158.403 10.1474C157.938 10.1081 157.469 10.1626 157.024 10.3075C156.452 10.5542 155.938 10.9173 155.514 11.3737C155.09 11.83 154.765 12.3697 154.56 12.9586L152.092 18.2965Z" fill="black"/>
<path d="M147.405 5.38184C147.755 5.51947 148.292 5.72094 148.868 5.91543C149.495 6.12787 149.976 6.27149 150.355 6.3812L150.326 6.46598C149.664 6.35527 149.415 6.36624 148.956 7.72466L145.555 17.7981C148.234 18.7057 149.03 18.976 149.906 18.0614L149.991 18.0903C149.626 18.7236 149.257 19.0338 148.686 20.0521L148.601 20.0232C148.734 19.4627 148.333 19.3081 145.111 18.216C141.279 16.9194 140.631 16.699 140 16.9573L139.9 16.9224C140.313 16.4 140.693 15.8528 141.039 15.2837L141.139 15.3176C141.09 15.3942 141.05 15.4758 141.019 15.561C140.842 16.0876 141.299 16.3589 144.305 17.3732L147.705 7.29978C148.164 5.94136 147.973 5.78078 147.38 5.46661L147.405 5.38184Z" fill="black"/>
<path d="M136.988 2.56934C137.351 2.66907 137.903 2.81968 138.497 2.95831C139.142 3.10891 139.634 3.20566 140.022 3.27747L140.001 3.36524C139.328 3.33731 139.084 3.35327 138.76 4.75058L138.151 7.37067L140.02 15.226C140.247 16.1445 140.344 16.5166 140.988 16.8327L140.968 16.9195C140.606 16.8198 139.825 16.6203 139.232 16.4777C138.587 16.3271 138.061 16.2223 137.673 16.1505L137.693 16.0637C138.267 16.1236 138.534 16.0019 138.607 15.6877C138.653 15.3383 138.616 14.983 138.5 14.6505L136.955 8.01098L133.815 11.7162C132.468 13.312 132.23 13.5554 132.104 14.0979C132.022 14.447 132.17 14.6834 132.674 14.8958L132.653 14.9826C132.273 14.8759 132.033 14.8011 131.387 14.6505C130.79 14.5128 130.425 14.445 130.054 14.3762L130.074 14.2894C130.933 14.3054 130.863 14.2156 133.327 11.3651L136.799 7.33377L137.469 4.45137C137.794 3.05505 137.584 2.93138 136.971 2.65611L136.988 2.56934Z" fill="black"/>
</svg>
