<svg width="38" height="13" viewBox="0 0 38 13" fill="none" xmlns="http://www.w3.org/2000/svg" class="icon_line">
<path d="M12.9934 0.0429697H11.0934C10.9538 0.0429694 10.8199 0.0983459 10.7211 0.196961C10.6223 0.295577 10.5667 0.429375 10.5664 0.568971V12.363C10.5667 12.5026 10.6223 12.6363 10.7211 12.7349C10.8199 12.8335 10.9538 12.889 11.0934 12.889H12.9934C13.0626 12.8891 13.1312 12.8756 13.1952 12.8492C13.2591 12.8229 13.3173 12.7841 13.3663 12.7353C13.4154 12.6864 13.4543 12.6285 13.4809 12.5646C13.5075 12.5007 13.5213 12.4322 13.5214 12.363V0.568971C13.5213 0.499764 13.5075 0.43126 13.4809 0.367372C13.4543 0.303483 13.4154 0.245439 13.3663 0.196595C13.3173 0.147752 13.2591 0.109066 13.1952 0.0827036C13.1312 0.0563407 13.0626 0.0428383 12.9934 0.0429697Z" fill="#F4F2F0"/>
<path d="M26.0622 0.0429697H24.1622C24.0226 0.0429695 23.8887 0.0983459 23.7899 0.196961C23.6911 0.295577 23.6355 0.429375 23.6352 0.568971V7.57593L18.2352 0.275941C18.2222 0.257145 18.2082 0.23916 18.1932 0.221986C18.1832 0.209986 18.1722 0.199966 18.1612 0.188966L18.1512 0.179933C18.1423 0.171709 18.133 0.164079 18.1232 0.156983L18.1092 0.145936L18.0822 0.126954L18.0662 0.117982L18.0372 0.10193L18.0202 0.0939341L17.9902 0.0809336L17.9722 0.0749521L17.9412 0.0649424H17.9222L17.8912 0.0579844H15.8952C15.826 0.0578529 15.7574 0.0713554 15.6934 0.0977182C15.6294 0.124081 15.5713 0.162766 15.5222 0.21161C15.4732 0.260453 15.4343 0.318498 15.4077 0.382386C15.3811 0.446275 15.3673 0.514779 15.3672 0.583985V12.3779C15.3673 12.4471 15.3811 12.5156 15.4077 12.5795C15.4343 12.6434 15.4732 12.7015 15.5222 12.7503C15.5713 12.7991 15.6294 12.8378 15.6934 12.8642C15.7574 12.8906 15.826 12.9041 15.8952 12.9039H17.7952C17.8644 12.9041 17.9329 12.8906 17.9969 12.8642C18.0609 12.8378 18.1191 12.7991 18.1681 12.7503C18.2172 12.7015 18.2561 12.6434 18.2827 12.5795C18.3093 12.5156 18.323 12.4471 18.3232 12.3779V5.37793L23.7352 12.6669C23.7717 12.7177 23.8171 12.7614 23.8692 12.796H23.8752C23.8862 12.802 23.8962 12.81 23.9082 12.816L23.9232 12.824L23.9482 12.8359L23.9742 12.847L23.9902 12.853L24.0262 12.8649H24.0332C24.0771 12.8774 24.1225 12.8838 24.1682 12.884H26.0682C26.1373 12.8841 26.2059 12.8706 26.2698 12.8442C26.3337 12.8178 26.3918 12.7791 26.4408 12.7302C26.4897 12.6814 26.5285 12.6233 26.555 12.5594C26.5815 12.4956 26.5952 12.4271 26.5952 12.358V0.568971C26.5952 0.499811 26.5815 0.431315 26.555 0.367433C26.5285 0.30355 26.4897 0.245513 26.4408 0.196656C26.3918 0.1478 26.3337 0.109079 26.2698 0.0827036C26.2059 0.0563285 26.1373 0.0428382 26.0682 0.0429697" fill="#F4F2F0"/>
<path d="M8.41869 9.93598H3.25869V0.568971C3.25869 0.499811 3.24505 0.431315 3.21855 0.367433C3.19206 0.30355 3.15322 0.245513 3.10427 0.196656C3.05532 0.1478 2.99722 0.109079 2.93329 0.0827036C2.86935 0.0563285 2.80085 0.0428382 2.73169 0.0429697H0.831689C0.76253 0.0428382 0.694023 0.0563285 0.63009 0.0827036C0.566158 0.109079 0.508054 0.1478 0.459104 0.196656C0.410155 0.245513 0.37132 0.30355 0.344824 0.367433C0.318327 0.431315 0.304689 0.499811 0.304689 0.568971V12.3619C0.304355 12.4978 0.357103 12.6284 0.451688 12.726L0.465688 12.7419C0.56339 12.8363 0.693893 12.889 0.829691 12.889H8.41569C8.48485 12.889 8.55333 12.8753 8.61721 12.8488C8.68109 12.8223 8.73913 12.7835 8.78798 12.7346C8.83684 12.6856 8.87556 12.6275 8.90194 12.5635C8.92831 12.4996 8.94182 12.4311 8.94169 12.3619V10.462C8.94182 10.3928 8.92831 10.3243 8.90194 10.2604C8.87556 10.1964 8.83684 10.1383 8.78798 10.0894C8.73913 10.0404 8.68109 10.0016 8.61721 9.9751C8.55333 9.9486 8.48485 9.93494 8.41569 9.93494" fill="#F4F2F0"/>
<path d="M36.5456 2.99603C36.6148 2.99603 36.6834 2.98237 36.7473 2.95581C36.8113 2.92925 36.8694 2.8903 36.9182 2.84125C36.9671 2.79219 37.0058 2.73397 37.0321 2.66992C37.0584 2.60587 37.0719 2.53726 37.0716 2.46802V0.567993C37.0717 0.498834 37.0582 0.430327 37.0318 0.366394C37.0055 0.302461 36.9667 0.244384 36.9179 0.195435C36.869 0.146485 36.811 0.107673 36.7471 0.0811768C36.6832 0.0546803 36.6148 0.0410155 36.5456 0.0410156H28.9596C28.8231 0.0410622 28.6921 0.0945344 28.5946 0.190002L28.5876 0.196045L28.5796 0.205017C28.4858 0.30257 28.4335 0.432661 28.4336 0.567993V12.36C28.4334 12.4955 28.4862 12.6258 28.5806 12.723L28.5876 12.731L28.5946 12.738C28.6921 12.8327 28.8227 12.8857 28.9586 12.886H36.5446C36.6138 12.886 36.6822 12.8724 36.7461 12.8459C36.81 12.8194 36.868 12.7806 36.9169 12.7316C36.9657 12.6827 37.0045 12.6245 37.0308 12.5606C37.0572 12.4967 37.0707 12.4282 37.0706 12.359V10.459C37.0707 10.3899 37.0572 10.3214 37.0308 10.2574C37.0045 10.1935 36.9657 10.1354 36.9169 10.0864C36.868 10.0375 36.81 9.99866 36.7461 9.97217C36.6822 9.94567 36.6138 9.93201 36.5446 9.93201H31.3866V7.93903H36.5446C36.6138 7.93903 36.6824 7.92536 36.7463 7.8988C36.8103 7.87224 36.8684 7.8333 36.9172 7.78424C36.9661 7.73519 37.0048 7.67696 37.0311 7.61292C37.0574 7.54887 37.0709 7.48025 37.0706 7.41101V5.51099C37.0707 5.44183 37.0572 5.37332 37.0308 5.30939C37.0045 5.24545 36.9657 5.18738 36.9169 5.13843C36.868 5.08948 36.81 5.05067 36.7461 5.02417C36.6822 4.99767 36.6138 4.98401 36.5446 4.98401H31.3866V2.99603H36.5456Z" fill="#F4F2F0"/>
</svg>
