<svg width="21" height="22" viewBox="0 0 21 22" fill="none" xmlns="http://www.w3.org/2000/svg" class="icon_instagram">
<path d="M10.4789 0.998047C7.63391 0.998047 7.27891 1.01004 6.15991 1.06104C5.29083 1.07866 4.43101 1.24339 3.61691 1.5481C2.92128 1.81732 2.28951 2.22866 1.76207 2.7561C1.23463 3.28355 0.823129 3.91545 0.553909 4.61108C0.249088 5.42515 0.0844236 6.28496 0.0669098 7.15405C0.0159098 8.27105 0.00390625 8.62814 0.00390625 11.4731C0.00390625 14.3181 0.0159098 14.673 0.0669098 15.792C0.08444 16.6608 0.249105 17.5203 0.553909 18.334C0.822851 19.0299 1.23425 19.6621 1.76172 20.1897C2.28919 20.7173 2.92109 21.1288 3.61691 21.3979C4.43101 21.7027 5.29083 21.8674 6.15991 21.885C7.27691 21.936 7.63391 21.948 10.4789 21.948C13.3239 21.948 13.6789 21.936 14.7979 21.885C15.6667 21.8673 16.5261 21.7025 17.3399 21.3979C18.0359 21.1288 18.668 20.7173 19.1956 20.1897C19.7232 19.6621 20.1348 19.03 20.4039 18.334C20.7089 17.5203 20.8735 16.6608 20.8909 15.792C20.9419 14.675 20.9539 14.3181 20.9539 11.4731C20.9539 8.62814 20.9419 8.27305 20.8909 7.15405C20.8735 6.28495 20.7089 5.42512 20.4039 4.61108C20.1345 3.91538 19.7228 3.28354 19.1952 2.7561C18.6676 2.22866 18.0357 1.81725 17.3399 1.5481C16.5261 1.2435 15.6667 1.07878 14.7979 1.06104C13.6809 1.01004 13.3239 0.998047 10.4789 0.998047ZM10.4789 2.88599C13.2789 2.88599 13.6069 2.89602 14.7119 2.94702C15.3761 2.95461 16.034 3.07649 16.6569 3.30713C17.1086 3.48146 17.5189 3.7482 17.8613 4.09058C18.2036 4.43296 18.4706 4.84319 18.6449 5.29492C18.8759 5.91775 18.998 6.57575 19.0059 7.23999C19.0569 8.33999 19.0669 8.67614 19.0669 11.4731C19.0669 14.2701 19.0559 14.6011 19.0059 15.7061C18.9981 16.3703 18.8759 17.0283 18.6449 17.6511C18.4705 18.1028 18.2036 18.5128 17.8612 18.8552C17.5188 19.1976 17.1086 19.4645 16.6569 19.6389C16.034 19.8697 15.3761 19.9919 14.7119 20C13.6119 20.05 13.2759 20.061 10.4789 20.061C7.68191 20.061 7.35091 20.051 6.24591 20C5.58169 19.9919 4.9238 19.8697 4.30092 19.6389C3.84928 19.4644 3.43912 19.1976 3.09676 18.8552C2.7544 18.5129 2.4874 18.1028 2.31291 17.6511C2.08209 17.0282 1.95999 16.3703 1.95192 15.7061C1.90192 14.6061 1.89091 14.2701 1.89091 11.4731C1.89091 8.67614 1.90192 8.34499 1.95192 7.23999C1.96008 6.57578 2.08218 5.91783 2.31291 5.29492C2.48735 4.84326 2.75433 4.43319 3.09669 4.09082C3.43906 3.74845 3.84925 3.48156 4.30092 3.30713C4.92379 3.07641 5.58172 2.95453 6.24591 2.94702C7.34591 2.89602 7.68191 2.88599 10.4789 2.88599ZM10.4789 14.9651C9.7885 14.9649 9.11365 14.7599 8.53969 14.3762C7.96573 13.9925 7.51844 13.4472 7.25436 12.8093C6.99029 12.1714 6.92129 11.4696 7.05611 10.7925C7.19092 10.1154 7.52348 9.49325 8.01175 9.00513C8.50001 8.517 9.12206 8.18467 9.79922 8.05005C10.4764 7.91543 11.1782 7.98452 11.8161 8.24878C12.4539 8.51303 12.9991 8.9606 13.3826 9.53467C13.7662 10.1087 13.9709 10.7837 13.9709 11.4741C13.9707 12.4001 13.6026 13.288 12.9478 13.9426C12.2929 14.5973 11.4049 14.9651 10.4789 14.9651ZM10.4789 6.09497C9.41505 6.09497 8.37507 6.41041 7.49049 7.00146C6.60592 7.59252 5.91649 8.43264 5.50937 9.41553C5.10225 10.3984 4.99571 11.48 5.20326 12.5234C5.41081 13.5669 5.92312 14.5253 6.67538 15.2776C7.42765 16.0299 8.3861 16.5422 9.42952 16.7498C10.4729 16.9573 11.5545 16.8507 12.5374 16.4436C13.5203 16.0365 14.3603 15.347 14.9514 14.4624C15.5424 13.5778 15.8579 12.538 15.8579 11.4741C15.8579 10.0475 15.2912 8.67917 14.2824 7.67041C13.2737 6.66165 11.9055 6.09497 10.4789 6.09497ZM17.3269 5.88208C17.3269 6.13069 17.2532 6.37361 17.1151 6.58032C16.9769 6.78703 16.7806 6.94832 16.5509 7.04346C16.3213 7.1386 16.0685 7.16349 15.8247 7.11499C15.5808 7.06649 15.3569 6.94655 15.1811 6.77075C15.0053 6.59496 14.8856 6.37103 14.8371 6.1272C14.7886 5.88336 14.8135 5.63081 14.9086 5.40112C15.0037 5.17144 15.1649 4.97503 15.3716 4.83691C15.5783 4.69879 15.8213 4.625 16.0699 4.625C16.4033 4.625 16.723 4.75743 16.9587 4.99316C17.1945 5.2289 17.3269 5.5487 17.3269 5.88208Z" fill="#F4F2F0"/>
</svg>
