<svg xmlns="http://www.w3.org/2000/svg" width="771" height="319" fill="none" viewBox="0 0 771 319" class="logo">
  <g class="char">
    <path fill="#3E2F25" d="M768.32 196.936c-6.666 8.525-13.337 13.183-20.676 13.183a11.9 11.9 0 0 1-8.012-3.707c-1.773-1.878-2.638-6.19-2.477-10.681.377-10.292 7.018-27.409 14.8-45.528 9.254-21.572 17.433-41.278 18.013-57.556.445-12.2-3.805-21.837-7.438-25.6-4.293-4.442-11.651-6.987-17.76-6.987-14.066 0-38.307 14.109-58.47 35l7.438-22.313h.006l3.842-11.422h-3.311s-9.952 5.893-38.5 5.893h-9.1l-2.107 5.529h19.076L615.82 216.243s-.284 1.748 1.927 1.748h28.262l.093-.371c-.488 0-.358-.735-.26-1.124l31.468-94.3c8.994-27.138 39.622-44.113 43.866-45.843 9.5-3.85 15.277-4.9 20.552-.266 2.595 2.279 3.317 7.963 2.385 14.764-2.107 15.289-11.5 36.9-19.762 55.029-7.975 17.513-14.814 34.056-15.326 48.172-.291 8.012 2 14.758 6.6 19.521 4.812 4.985 12.077 7.617 21.01 7.617 9.056 0 22.177-5.64 34.229-20.349l-2.544-3.905Z" class="char"/>
  </g>
  <g class="char">
    <path fill="#3E2F25" d="M520.38 138.994h21.961c42.007 0 71.739-19.385 74.012-48.234a26.935 26.935 0 0 0-6.641-20.129c-6.264-6.92-16.5-10.582-29.6-10.582-45.25 0-90.185 47.418-94.268 99.482-1.458 18.5 3.4 34.952 13.689 46.325 8.951 9.884 21.615 15.326 35.687 15.326 20.077 0 34.971-7.092 51.582-24.9l-2.928-4.361c-13.479 15-26.4 23.332-49.309 23.332-8.525 0-15.376-2.755-19.558-7.37-4.868-5.387-6.869-14.023-5.961-25.686.778-9.859 4.287-21.874 11.33-43.211m59.316-73.438c4.942 0 8.42 1.73 10.638 4.17 2.249 2.483 3.169 6.357 2.768 11.533-1.495 19.082-15.7 52.089-56.839 52.089h-14.19c15.024-44.175 29.022-67.792 57.623-67.792Z" class="char"/>
  </g>
  <g class="char">
    <path fill="#3E2F25" d="M468.73 61.293c-12.2 0-30.554 7.283-44.33 26.223l4.936-14.77 3.836-11.422h-3.311s-9.952 5.893-38.5 5.893h-9.1l-2.107 5.529h19.07l-47.82 143.497s-.364 1.748 1.915 1.748h28.277l.08-.371c-.482 0-.352-.735-.253-1.124l31.406-94.262c11.57-34.717 35.5-51.112 44.571-54.121 5.825-1.934 10.965-.3 13.387 2.483 2.008 2.317 1.9 5.183.432 8.265-1.112 2.347-3.361 2.5-5.183 5.7a10.305 10.305 0 0 0 .012 10.675c1.847 3.268 6.079 5.09 10.174 5.09 8.865 0 13.615-4.936 14-15.956a22.066 22.066 0 0 0-5.98-16.469 19.733 19.733 0 0 0-15.512-6.61" class="char"/>
  </g>
  <g class="char char__base">
    <path fill="#3E2F25" d="m309.118 66.977-3.181 9.594a22.328 22.328 0 0 0-7.32-12.178c-3.638-2.971-8.7-4.269-14.566-4.269-43.356.002-82.356 42.688-91.256 88.816-8.587 44.509 9.668 71.968 37.176 71.968 5.64 0 11.947-2.391 18.217-6.523a76.819 76.819 0 0 0 18.773-18.267c-.389 6.264 1.161 12.2 4.157 16.364 4.083 5.7 12.028 8.71 21.4 8.71 7.753 0 18.551-4.676 29.108-16.241l-2.347-3.6c-6.647 6.845-14.221 12.423-20.182 10.73-3.824-1.093-6.258-4.732-2.656-17.581l.037.012 44.726-133.188h-3.309s-7.345 4.547-28.775 5.652m-76.158 146.517c-16.185 0-22.189-16.228-18.539-39.869 5.554-36.076 21.881-78.873 43.762-96.85 7.592-6.233 13.5-10.31 25.779-10.31a16.261 16.261 0 0 1 13.084 6.789c2.835 4.232 3.379 13.751 1.612 22.023a367.604 367.604 0 0 1-19.311 63.894c-10.675 26.523-28.583 54.323-46.387 54.323Z" class="char"/>
  </g>
  <g class="char">
    <path fill="#3E2F25" d="M204.53 12.22c-6.255-4.14-14.696-4.25-21.831-2.694-12.624 2.761-23.438 10.452-31.456 20.41a101.961 101.961 0 0 0-8.29 12.4c-11.778 20.12-18.415 46.59-42.859 55.244a35.897 35.897 0 0 1-18.673.791l-.316.766s2.508 44.188 25.149 85.78c20.219 37.151 42.828 48.333 67.594 50.655 3.207.23 6.43.041 9.587-.562v-.482a59.596 59.596 0 0 1-24.21-14.4c-9.211-8.9-26.155-31.728-40.407-71.795-10.489-29.5-12.6-48.6-12.6-48.6a56.042 56.042 0 0 0 9.457-4.482c23.837-15.685 28.378-47.777 47.349-67.625 5.146-5.38 11.113-9.73 18.576-10.99 3.379-.568 9.8-.908 12.509 1.872 2.99 3.052 1.779 6.616-1.186 10.984-6.845 10.082 6.851 20.034 15.45 12.4 3.202-2.832 4.202-6.382 4.602-10.582.673-7.092-2.471-15.135-8.445-19.088M30.026 216.638 102.438 0h-3.3s-9.964 5.893-38.51 5.893h-9.1l-2.1 5.529h19.059L.04 216.243s-.482 1.748 1.915 1.748h28.268l.086-.371c-.432 0-.376-.575-.283-.982Z" class="char"/>
  </g>
  <path class='words' fill="#3E2F25" d="M48.885 297.211h15.882v-3.274H48.885v-14.146H68.95v-3.268H43.08v41.105h26.3v-3.274H48.884v-17.143Zm56.466-1.204-11.5-19.484H87.45l13.738 23.16v17.945h5.838v-17.915l14.394-23.19h-4.5l-11.568 19.484Zm41.012 1.204h15.876v-3.274h-15.876v-14.146h20.07v-3.268h-25.89v41.105h26.31v-3.274h-20.49v-17.143Zm357.854 0h15.876v-3.274h-15.876v-14.146h20.065v-3.268H498.41v41.105h26.3v-3.274h-20.5l.007-17.143Zm-242.595 2.554a9.919 9.919 0 0 0 4.386-3.2 12.695 12.695 0 0 0 2.663-8.185c0-8.574-6.616-11.855-13.164-11.855h-14.808v41.1h5.813v-17.09h7.71l11.051 17.093h5.745l-11.132-17.211 1.736-.652Zm-7.92-2.434h-7.19V279.76h5.455c6.14 0 11.3 1.266 11.3 8.772s-3.985 8.8-9.569 8.8m-44.13-1.999s.686-.21 1.458-.513a8.486 8.486 0 0 0 5.294-8.086 9.612 9.612 0 0 0-2.687-6.826c-2.088-2.249-5.09-3.385-8.9-3.385h-14.241v41.1h18.032c8.2 0 11.354-5.64 11.354-11.737a10.763 10.763 0 0 0-10.31-10.551m-13.263-15.581h3.879c4.182 0 10.792 0 10.792 7.129 0 6.869-5.282 7.747-9.631 7.747h-5.04v-14.876Zm8.772 34.711h-8.772v-16.877h7.6c6.375 0 10.31 1.544 10.31 8.432s-3.522 8.445-9.138 8.445Zm252.209-37.942h-15.45v41.105h15.024c12.923 0 21.2-6.085 21.2-20.454 0-13.671-7.199-20.651-20.774-20.651Zm-1.341 37.831h-8.308v-34.563h7.611c11.014 0 17.155 4.917 17.155 17.316 0 13.628-7.3 17.248-16.457 17.248m112.239-15.265c-1.007-.593-4.25-2.212-10.292-5.078-3.188-1.52-6.869-4.034-6.869-8.228 0-5.1 4.139-6.542 9.458-6.542 2.954.033 5.859.758 8.482 2.116l1.3-3.157a25.162 25.162 0 0 0-10.712-2.28c-4.38 0-7.845 1.044-10.292 3.1a9.334 9.334 0 0 0-3.379 7.592 10.937 10.937 0 0 0 1.061 4.405 10.943 10.943 0 0 0 2.757 3.595c2.125 1.866 7.259 4.386 11.039 6 4.738 2.014 7.845 4.287 7.845 7.444 0 2.576-2.446 6.61-9.822 6.61-6.159 0-12.1-4.238-12.1-4.238l-1.446 3.54a27.668 27.668 0 0 0 14.332 4.25c4.256 0 7.722-1.093 10.261-3.237a10.388 10.388 0 0 0 3.54-7.92c0-3.731-2.039-6.159-5.171-7.981m33.499-22.554h-5.813v41.099h5.813v-41.099Zm48.129 24.971h6.659v11.206s-3.453 1.791-9.859 1.791c-9.816 0-16.939-5.615-16.939-16.92 0-12.318 9.489-18.353 17.81-18.353a21.708 21.708 0 0 1 11.317 3.064l1.773-2.78s-4.343-3.589-13.961-3.589c-6.857 0-12.5 2.026-16.747 6.042-4.182 3.941-6.221 8.92-6.221 15.209 0 12.664 8.4 21.053 22.727 21.053a31.436 31.436 0 0 0 15.339-4v-16h-11.9l.002 3.277Zm70.204-24.974v31.011l-31.116-31.011h-2.565v41.1h4.145v-31.018l31.1 31.017h2.57v-41.1l-4.134.001Zm-410.577-.607c-6.752 0-12.244 2.329-16.327 6.894a20.954 20.954 0 0 0-5.424 14.295 20.737 20.737 0 0 0 5.578 14.4c4.089 4.46 9.526 6.715 16.173 6.715a20.922 20.922 0 0 0 16.043-6.727 20.522 20.522 0 0 0 5.628-14.387 20.941 20.941 0 0 0-5.411-14.295c-4.052-4.565-9.526-6.894-16.259-6.894m11.194 34.02a14.387 14.387 0 0 1-11.195 4.792 14.356 14.356 0 0 1-6.191-1.171 14.351 14.351 0 0 1-5.095-3.707c-2.879-3.262-4.343-7.561-4.343-12.775 0-5.313 1.47-9.649 4.361-12.88a14.502 14.502 0 0 1 11.268-4.79 14.42 14.42 0 0 1 11.194 4.788c2.9 3.231 4.368 7.567 4.368 12.88 0 5.313-1.47 9.637-4.368 12.862m66.606-3.363L376.1 276.527h-.908l-10.947 30.047-11.119-30.047h-6.7l16.525 41.698h.445l11.237-28.54 11.318 28.54h.426l16.438-41.7h-4.633l-10.95 30.049Z" class="Vector"/>
</svg>
