<svg xmlns="http://www.w3.org/2000/svg" width="1214" height="346" fill="none" viewBox="0 0 1214 346" class="partner_refill">
  <path fill="#927460" d="M1212.61 1.457c1.21-1.482.45-1.188.57-1.457-1.9 2.553-.44 1.463-.57 1.457Zm-23.81 20.807.42-.426c-1.33.861-2.73 1.617-4.1 2.437l3.68-2.011Zm-28.57 9.887c1.5.064 4.15-.706 7.11-1.546l8.7-2.849.9-.138c.7-.455 1.42-.871 2.09-1.37-3.05 1.182-6.57 2.517-9.95 3.56-1.67.573-3.33 1-4.83 1.4-1.51.4-2.87.752-4.02.943Zm-16.2 1.677c1.03.1-3.41.857 3.74-.584l-.69.052-3.05.532Zm3.05-.532c-2.1.142 3.15-.586 0 0Zm-14.6 2.58 4.15-.9c-.9-.026-4.63.517-3.27.184-4.27.805-3.37.826-.88.716Zm-3.9 1.122 2.16-.432a6.54 6.54 0 0 0-2.16.432Zm6.73-1.365-4.57.933c.73.146 1.48 0 2.1-.406-.34.267.54-.075 2.47-.527Zm2.62-.303c2.37-.234 5.42-.638 1.26.3 3.99-.7 5.67-1.15 5.35-1.227-2.22.16-4.43.469-6.61.927Zm20.95-2.12 3.15-.5 2.6-.921c-1.13.34-2.28.623-3.45.848a8.38 8.38 0 0 0-2.3.573Zm-52.69 6.392c-.24.194 1.49.163 1.83.3l3.09-.69c-1.62.167-4.67.577-4.92.39Zm1.83.308c-1.54.334-3.07.705-4.61 1.073 4.16-.74 4.9-.944 4.61-1.073Zm19.93-2.016 7.53-1.71-9 1.939 1.47-.229Zm-39.56 5.282 2.56-.943c-1.53.544-3.06 1.024-4.57 1.623.67-.237 1.34-.474 2.01-.68Zm-11.68 3.254c1.85-.855-2.8.322-.8-.46-1.58.521-3.01 1.127-4.34 1.68l-1.93.832-1.78.891c.63-.279 1.26-.562 1.92-.826.67-.242 1.36-.481 2.08-.72 1.46-.455 3.03-.999 4.85-1.397Zm-12.7 4.844c1.22-.58 2.48-1.208 3.85-1.901-1.31.599-2.6 1.208-3.85 1.901Zm31.47-8.843a12.82 12.82 0 0 0-3.75.365h1.91l1.84-.365Zm-1.77.366h-.07l-3.94.872 4.01-.872Zm2.23-.457-.46.091a.8.8 0 0 0 .46-.091Zm19.76-2.972c-2.7.646-8.35 1.859-2.78 1.3 1.91-.59-1.28-.302 2.78-1.3Zm-17.39 3.042c1.65-.313 3.3-.568 4.95-.835-.12-.093-1.04-.094.29-.455-1.75.418-3.5.818-5.24 1.29Zm-2.39.616 2.39-.619-1.84.333-.55.286Zm-23.6 5.484-6.76 2.821 4.13-1.547 4.12-1.409c.34-.265 1.45-.899-1.49.135Zm10.34-3.086-.46.146c.29-.04.53-.089.46-.146Zm-40.21 19.523.38-.222c0-.042.01-.083.03-.123l-.41.345Z"/>
  <path fill="#927460" d="M1074.3 48.289a46.3 46.3 0 0 0 4.46-1.564c-1.55.5-3.2 1.011-4.95 1.647-.15.117-.16.166.49-.083Zm-16.99 6.415c.53-.227 1.08-.5 1.67-.742l1.85-.738c-.53.174-1.34.455-2.06.727-.51.198-1 .45-1.46.753Zm24.15-9.055c.1-.037.2-.076.3-.109-.71.11-.61.132-.3.109Zm0 0c-1.06.38-1.88.733-2.7 1.076l3.43-1.155c-.26.04-.54.06-.73.079Zm-43.14 26.719a10.546 10.546 0 0 1 2.38-2.941 58.933 58.933 0 0 1 4.03-3.43c.49-.381 1.04-.688 1.56-1.013 1.84-1.533 1.95-2.111 1.11-2.057-.65.09-1.29.264-1.89.518-.93.338-1.83.767-2.68 1.28 0 .232.08.361-3.59 3.825.74-.5 2.95-2.223 4.58-3.435 1.7-1.141 2.85-1.729 1.25-.353-2.52 2.136-3.51 3.055-4.29 3.575-.38.271-.69.461-1.07.71-.36.266-.78.589-1.4 1.111 1.17-.763-.27.793-1.66 2.574-1.41 1.767-2.82 3.725-2.08 3.432l1.84-2.2 1.9-2.147c.15.005-1.17 1.618.01.551Zm12.38-13.226 1.74-1.15c-1.02.6-1.91 1.1-2.91 1.618-1.01.493-2.05 1.119-3.41 1.932-1.35 1.112-2.15 1.8-2.62 2.247-.27.23-.48.505-.64.813.63-.578 1.35-1.053 2.04-1.563l2.08-1.51c1.36-1.049 2.85-1.907 4.3-2.816l-.58.429Zm9.97-5.555c-1.33.985-5.56 3.594-2.68 2.541 1.31-.747 2.23-1.18 2.88-1.522.65-.342 1.04-.58 1.36-.788.83-.587 1.7-1.108 2.61-1.559-8.85 4.187 2.45-1.411-4.08 1.341l2.48-1.233 1.16-.563 1.16-.476-1.24.451-1.19.5-2.3.945.22-.07.04-.02-.01.01c.41-.13.55-.159.1.014l-.18.094c-.09.13-.2.243-.33.334-2.62 1.118-.46.088.33-.334.02-.033.09-.084.08-.108l-.03.01-2.21 1.091-2.15 1.224c-1.42.842-2.9 1.569-4.25 2.524.89-.557 1.93-1.1 3.25-1.806 1.33-.687 2.87-1.653 4.98-2.6Zm47.32-11.16c-.3.012-.29-.021-.32-.048-.61.154-.83.231.32.048Z"/>
  <path fill="#927460" d="M1104.04 42.857c1.13-.38 2.3-.65 3.48-.806 1.97-.2.03.205.15.328 1.34-.337 4.69-1.092.41-.593l-.66.169c-2.72.413-5.46.658-8.21.736 1.6.205 3.22.26 4.83.166Zm-22.18 4.06-3.84 1.257-1.92.632-1.89.709 2-.493 2.02-.412-.27-.155c4.43-1.227 3.4-1.209 3.9-1.538Zm-40.27 18.481.55-1.068-3.22 3.608 2.67-2.54Zm-7.73 7.447-.02-.56c-.58.752-1.17 1.49-1.72 2.249.56-.575 1.16-1.124 1.74-1.689Zm-543.163 81.322-2.31-.412a52.4 52.4 0 0 0 2.31.412Zm16.383 4.367.454-.076c-.787-.107-1.118-.118-.454.076Zm290.721-49.745c-3.487.147-7.422.345-6.928.686l1.131.238a42.86 42.86 0 0 1 5.797-.924Zm-156.465 77.553 1-.177 2.085-1.1-3.085 1.277Zm-1.865 2.377c-1.506.314-3.008.628-4.534.838a52.323 52.323 0 0 0 1.9-.271l2.634-.567ZM398.962 143l-2.737.45c4.269-.014 2.394-.232 2.737-.45Zm547.5-23.548c-2.915-.263-5.231-.51-7.271-.663l4.593.654a7.87 7.87 0 0 0 2.678.009Zm-448.13 31.834c-1.416-.313-2.034-.4-2.017-.288 1.456.327 2.289.475 2.017.288Zm432.43-33.276 1.531.258c2.141.156 4.293.283 6.9.517a71.768 71.768 0 0 0-4.1-.523 38.937 38.937 0 0 0-4.331-.252Zm-840.6 137.967-.617.45c-.017.092.244-.123.617-.45Zm-72.429 66.52c.6-.765 1.618-1.984 2.571-3.137-.489.54-1.27 1.482-2.571 3.137Zm988.257-219.022c.24-.25 1.64-1.359 0 0Zm8.89-5.795c-.29.369-.49.667-.46.776.1-.285.26-.549.46-.776Zm-106.218 19.97-.188-.032c.638.192.529.154.188.032Zm99.938-16.04-2.19 1.619c.36-.256 1.04-.732 2.19-1.619Zm-.46.12c.57-.456 1-.846 1.41-1.2.15-.236-.04-.099-1.41 1.2Zm-4.5 3.532 1.44-1.017 1.33-1.019c-.35.24-.49.331-.42.249l-.9.738-1.45 1.049Zm-758.316 60.73-.458.122c-2.031.928-1.123.568.458-.122Zm499.192-35.609.213-.132-.3.133.087-.001Zm-6.78 3.989a28.396 28.396 0 0 1 6.7-3.988c-.96.027-1.933.041-2.9.086-1.274 1.308-2.552 2.589-3.8 3.902Z"/>
  <path fill="#927460" d="m450.791 146.758 5.436 1.111c-6.719-.241-11.466-1.092-6.4.132.24-.311 1.693-.3 3.754-.125 1.031.086 2.213.214 3.471.361 1.255.171 2.575.425 3.9.646 5.3.916 10.591 1.831 11.1 1.233l3.54.925c-1.027-.2-1.207-.149-2.223-.345 2.062.641 4.2 1.002 6.358 1.073 2.678.08 5.335.492 7.912 1.226 3.091.812 5.215 1.5 3.056 1.172 2.334.429 4.687.791 6.987 1.368 1.987.582 1.439.674-.538.1l10.476 2.811-.088.016c1.547.215 5.026.829 6.715 1.175 2.564 1.049-1.358-.292-.742.108 1.947.483 3.872 1.042 5.812 1.56 2.209 1.131-2.6-.192-6.552-1.44 4.95 2.955 4.844 1.217 16.086 5.758l-5.431-1.622a36.93 36.93 0 0 0 5.691 2.516 74.562 74.562 0 0 1 7.609 3.211c-.667-.377-3.525-1.864-5.493-2.892-1.982-.988-3.015-1.673.135-.806a70.893 70.893 0 0 0 7.3 2.661c-.14.463 3.1 1.593 7.112 3.121l-.512.487c4.388 1.512 4.183 1.047 6.813 1.854 4.75 2.083 5.544 2.978 6.505 3.843 7.625 3.39-4.983-3.005 4.142.785a128.48 128.48 0 0 0 18.952 7.105c4.591 1.771-.943.1.67.83 1.438.3 2.864.617 4.312.865 1.018.325.643.374.452.4 1.789.449 1.907.31 2.279.247.372-.063.987-.031 3.8.609a7.767 7.767 0 0 1 2.583.461c1.251.337 2.852.779 4.638 1.233a39.655 39.655 0 0 0 11.583 1.287c1.766.275-.87.349-.339.621 2.487-.03 4.258-.19 5.643-.24 1.384-.126 2.383-.253 3.326-.361.943-.108 1.831-.21 2.972-.455 1.141-.245 2.555-.458 4.515-.956l3.42-.358c1.14-.13 2.267-.339 3.4-.506-2.521.306-2.22-.028-.639-.641 1.6-.57 4.425-1.593 7.038-2.574-1.763.266-3.271.438-4.266.613 1.407-.448 2.823-.855 4.216-1.334l4.155-1.5c1.032-.275.284.276-1.023.951.56-.233 1.092-.449 1.493-.655 3.055-.858 1.65.057-.395 1.157l-3.183.593c-1.973 1.056-3.891 1.929-3.342 2.2.544-.232 1.623-.557 2.795-.952-.521.283-.859.455-.58.45.87-.269 1.714-.616 2.521-1.037l2.175.059c.128-.139.256-.278.381-.426 3.749-1.17 7.484-2.429 11.124-3.91 7.408-4.1 13.37-8.356 24.5-15.448-2.525 2.154-.156 1.1.014 1.722-3.431 1.3-8.665 5.523-14.866 8.583 3.231-1.589 2.648-1 1.9-.456 3.519-2.128 7-4.3 10.4-6.573.019.574 2.443-.992 5.27-2.509-2.566.442 7.4-5.393 11.362-8.4.44.111-.358 1.063-5.508 4.283 6.044-3 6.616-5.693 12.443-8.77a12.82 12.82 0 0 0-2.318 1.683c2.721-2.154 9.889-6.611 8.395-5.27l-1.226.817 15.719-10.249c5.362-3.5 9.868-6.4 10.294-7.131a5.211 5.211 0 0 1-1.015 1.976c4.524-3.748 9.173-7.376 14.031-10.8-.539.662.724.743 1.216 1.149.247.2.3.484-.145.956a16.662 16.662 0 0 1-3.14 2.15l3.689-1.7 5.374-2.616c-1.484.524-4.056.592-2.093-.324 2.9-.8 3.882-1.106 5.022-1.494.572-.189 1.173-.418 2.082-.7l3.9-1.073c-2.27.683-.218-1.321 3.335-2.58-.5.347.656.954-.585 1.539 1.388-.721 2.825-1.317 4.243-1.984 1.426-.641 2.845-1.325 4.291-1.935-2.179.861-.129 1 1.967.786-.5.02 1.446-.5 3.806-1.115l1.817-.473 1.8-.391a69.59 69.59 0 0 0 2.751-.645l-3.909.6a60.82 60.82 0 0 0 6.048-1.544c1.56-.511 2.813-.876 4.05-1.325 1.241-.431 2.482-.865 4.063-1.3a51.303 51.303 0 0 1 6.125-1.114c-1.237.406-2.9 1.846 2.371 1.258a118.489 118.489 0 0 1 7.276-2.406c1.748-.516 3.728-.929 5.85-1.357 1.062-.2 2.16-.406 3.286-.571a78.438 78.438 0 0 1 3.448-.343l1.8.276c2.388-.227 4.782-.328 7.178-.442-1.12.216-2.742.476-4.646.79l-6.337 1.148c-2.251.365-4.556.911-6.721 1.31l-3.111.6-2.732.59a65.821 65.821 0 0 0 6.994-.2c2.093.192-3.173.635-4.888.835 4.551-.28 9.1-.535 13.666-.549-.313-.3 2.3-.622 4.932-.755 2.632-.133 5.283-.278 5.025-.559-2.491.122-4.98.186-7.462.354l-7.436.577c-.655-.628 8.563-2.339 18.37-1.954 2.477.353-1.889 1.133-1.685 1.364a71.691 71.691 0 0 1 10.143.136 89.624 89.624 0 0 0-4.145.151c2.7.188 4.917.187 7.276.138a36.424 36.424 0 0 1 8.07.686c2.246.207 6.583 1.587 7.015 1.232-3.546-1.2-4.03-3.642-1.507-3.922.391.082 3.341.587 6.49 1.23 3.144.686 6.5 1.426 7.745 1.818 1.795.6.355.718-1.148.841s-3.069.248-1.544.73c1.024-.133 2.06-.14 3.085-.022 2.319.535-1.06.4 4.044 1.15.962-.539 10.347 1.806 2.5-.167 5.015.65 5.27 1.039 11.128 2.016-1.789-.758 5.509-.563 10.537.062-.323.122.763.532 1.29.722 10.227 1.688 15.7 2.809 25.334 3.783.868.272 5.52.831 3.509.967 1.4.005 2.7-.145 5.685.021 2.88.42 1.211.4-.632.317-1.843-.083-3.859-.15-1.673.341.4-.341 7.781-.1 12.049-.391-.658-.3-3.114-.347-5.944-.356l-8.173-.057c.047-.878 7.505-1.016 17.506-1.618 3.971-.255 4.837-.17 4.887-.034.05.136-.722.361-.036.249a49.931 49.931 0 0 0 13.322-2.241l4.342-1.3 6.736-1.814c4.786-1.092.563.936 1.71.949l-2.17.8c-.7.215-1.361.4-1.994.573l-1.821.479c-.586.133-1.156.233-1.706.341-2.2.455-4.162.675-6.323 1.1 1.786-.283 3.6-.47 5.371-.849a42.67 42.67 0 0 1-8.626 1.763 68.05 68.05 0 0 0 15.419-3.171 83.632 83.632 0 0 0 10.443-4.192c.849-.375 1.635-.85 2.436-1.256.786-.434 1.591-.8 2.312-1.261 1.46-.895 2.89-1.655 4.09-2.5.78-.689 1.91-1.546 2.58-2.22.66-.674.97-1.041.25-.6-.92.817-1.93 1.5-2.91 2.246-1.5.8-.17-.326 1.02-1.328.47-.364.91-.765 1.32-1.2.16-.208-.03-.081-.98.572 4.24-3.854 8.25-7.94 12.04-12.236l1.31-.578c-.67.526-1.29 1.123-1.85 1.78-.94.968-1.98 2.148-2.6 2.9.9-1.12 2.82-2.941 4.67-4.894a25.541 25.541 0 0 0 4.3-5.526l-3.4 3.5c2.92-3.979 6.13-9.242 10.33-13.886-2.29 1.786-.89 1.134-4.23 4.108 1.54-1.21-.96 1.875-3.24 4.719-2.28 2.844-4.4 5.4-2.13 3.361a53.173 53.173 0 0 0-4.43 4.4c-1.6 1.77-3.35 3.4-5.24 4.872.26.007 1.74-1.088-1.96 2.249-.13.194-.48.6-.7.863l-.26.214.22-.166c-.14.168-.15.185.08-.062.67-.535 1.37-1.03 2.1-1.485-.57.72-1.18 1.4-1.84 2.035-.82.8-1.84 1.647-2.84 2.523-2.05 1.681-4.23 3.258-5.34 4.047-2.596 1.509.93-.861-.57-.177-.537.4-1.065.832-1.624 1.213l-1.693 1.128c-1.066.26-2.116.58-3.145.961-1.03.286-1.163.264 1.885-1.422-.9.524-1.882.91-2.818 1.372l-1.42.666-1.456.587c-1.743.625-3.851 1.244-5.867 1.9-2.053.561-4.009 1.188-5.529 1.609-.73.145-1.538.377-2.318.578-.78.201-1.525.387-2.1.546-1.149.317-1.619.47-.373.049-1.609.39-3.258.612-4.888.928-1.645.236-3.291.491-4.949.676l-.1-.1c-9.8.816-20.438 1.231-31.718-.74a118.763 118.763 0 0 1-12.392-1.408l-1.034-.539c-4.3-.464-12.791-2.387-14.7-2.305-4.443-1.778-20.746-3.881-28.384-5.139l-.364.46c-2.627-.393-5.2-.762-7.957-1-2.75-.272-5.659-.549-8.955-.717l.361.483c-5.669-.243-14.53-1.457-23.536-1.536a19.036 19.036 0 0 1 4.507.063 84.624 84.624 0 0 0-16.592-.032c-5.541.429-10.919 1.067-15.807 1.234-2.406.376-4.155.572-5.86.7.224-.032.424-.068.6-.106l-.991.132-3.386.229a51.576 51.576 0 0 0 2.854-.154l-3.375.519c-1.279.2-2.655.533-4.02.822l-1.256-.263-.634.127c-2.737.311-2.126.614-.621.712a30.923 30.923 0 0 0-3.56 1c-2.337-.268-7.083 1.792-10.2 1.858-1.743.766-13.4 4.248-14.434 5.744-.127-.071-.913.165.492-.365a50.055 50.055 0 0 0-8.345 3.318l-1.452-.042-2.951 1.716c-.975.584-1.926 1.214-2.886 1.817a37.59 37.59 0 0 1-3.75 1.3c-.453.056-.009-.377 1.719-1.506l-7.539 4.492c-1.569.913-2.954 1.783-6.4 4.179l.152-.549c-1.281.771-2.89 1.869-4.375 2.876a23.494 23.494 0 0 1-3.707 2.25c-3.037 1.438-10.026 5.859-17.989 11.122-7.963 5.263-17.006 11.225-24.446 15.351 3.424-.714-7.012 3.666-7.173 4.7-1 .253-3.122 1.29-.859-.282-7.4 4.5-11.594 5.768-16.673 8.923-1.012.146 1.515-1.115.647-.909a19.137 19.137 0 0 1-3.276 1.537c-.862.2 1.057-.723 2.246-1.382-7.984 3.528-8.6 4.41-8.923 5.427-2.157.615-3.788.988-5.221 1.488-1.429.517-2.715.958-4.205 1.643a9.707 9.707 0 0 1-2 .128c-.178-.066.5-.311 3.119-1.078l-1.635.413c-.7.189-1.54.381-2.475.557l-3 .618-3.212.526-1.577.264-1.514.185c-.976.12-1.876.24-2.646.356a8.385 8.385 0 0 0-2.641.5 19.128 19.128 0 0 0-2.6.074c-1.05.022-2.083.065-2.487.1a85.79 85.79 0 0 1-14.165-1.25l1.835.394c-.706.083-1.419.091-2.127.024-.8-.104-1.593-.249-2.378-.435-.863-.181-1.8-.428-2.853-.723l-3.557-.929.171-.035c-5.979-1.951-7.245-2.44-8.54-2.787-.646-.179-1.277-.386-2.469-.837-1.192-.451-2.939-1.164-5.778-2.445l.455.7c-.726.258-3.252-.887-6.416-2.463a112.023 112.023 0 0 0-10.4-4.814l2.3 1.289c-3.777-1.24-9.63-5.709-13.364-7.206-.781-.4 1.34.366 2.5.746-9.562-4.365-1.505.089-8.841-2.6-1.223-.838 2.043-.132-2.846-2.1-2.294-1.41-14.774-3.993-21.373-6.886 1.425.748 2.833 1.49-.666.535l-4.542-1.453-5.183-1.71a54.288 54.288 0 0 0-9.512-2.454c-.663-.258-.9-.4-.916-.467-4.2-.74-13.545-2.73-16.127-2.862-1.717-1.355-8.28-2.254-14.315-3.13-3.02-.425-5.91-.849-8.033-1.213-2.133-.292-3.488-.605-3.409-.98l-12.968-1.634.356-.11-2.864-.4-2.44-.191c-1.5-.1-2.739-.163-3.816-.193-2.153-.061-3.635-.005-5.111.051-1.913-.27-.5-.29-.333-.357l-7.364-.792c-1.984-.143-3.6-.182-5.154-.218-3.108-.056-5.978.032-11.093.2l-1.048-.539c-.695.063-2.14-.081-4.11-.093l-7.24-.2c-2.78-.072-5.85-.134-8.972-.139-1.561-.032-3.133.07-4.688.168-1.555.098-3.094.217-4.585.359a3.735 3.735 0 0 1 1.305-.283c-3.358.3-7.052.459-10.784.559-.933.032-1.87.033-2.8.08l-2.779.171-5.4.326c-3.494.219-6.721.452-9.369.771a23.448 23.448 0 0 0-3.488.632c-.821.19-1.619.47-2.379.836l-8.744 1.623c11.392-1.382-1.586 1 3.131.674-4.445.7-11.625 1.006-6.149.18l.873-.026c.47-.3-.18-.353-1.418-.273a43.194 43.194 0 0 0-4.928.618c-3.731.617-7.67 1.308-7.574.966l-8.322 1.473c-2.761.508-5.483 1.165-8.213 1.729l-8.154 1.736-4.053.868-4 1.022c-5.316 1.383-10.62 2.656-15.824 4.106-5.162 1.591-10.276 3.167-15.343 4.726l2.558-.039c-2.352.728-4.715 1.423-7.019 2.29-1.877.5-2.636.347 2.333-1.422a35.951 35.951 0 0 0-8.285 3.543c-9.8 3.24 3.5-2.177.52-1.115l-4.027 1.519.942-.251c-1.588.735-2.426 1.2-3.613 1.753-.593.274-1.274.57-2.18.929l-1.542.6-1.952.8c-3.761 1.386-2.069.362-3.54.935-.782.211-1.537.513-2.248.9l-8.643 3.48 3.67-.883c-1.852.915-3.878 1.738-4.912 2.2-1.016.51-1.078.572 1.037.062-3.1.761-11 4.362-18.616 7.832-7.481 3.761-14.623 7.513-16.424 8.245-4.9 3.087-9.831 5.932-16.03 9.309 1.6-.739 2.812-.73-2.5 2.228 1.219-2.315-9.8 5.306-14.516 7.058 2.063-.856-1.669 1.348-4.939 3.689-3.306 2.285-6.329 4.422-3.206 2.891-4.289 2.721-.533-.248-3.92 1.625a169.715 169.715 0 0 1-3.8 2.685c-1.311.891-2.651 1.8-3.978 2.783a614.877 614.877 0 0 1-8.376 5.883c-5.846 3.906-11.69 8.425-17.559 13.065-.074.28 2.068-1.046-.3 1.128l-3.385 2.086-3.3 2.2c-2.211 1.967-1.435 2.528-5.962 5.528.68-.377 1.694-.936.214.378-5.826 4.45-11.258 9.485-16.812 14.448-1.37 1.261-2.792 2.47-4.119 3.786l-4.009 3.923-8.028 7.878-15.636 16.227a629.878 629.878 0 0 1-7.67 8.22l-3.887 4.045c-1.313 1.332-2.53 2.743-3.811 4.1 2.841-2.876 1.145-.79-.815 1.583 1.343-1.485.3.315.737.167l-8.48 9.143c-.939 2.155-8.166 10.567-8.476 11.968l2.325-3.183c-2.616 4.592 5.8-4.769 6.072-3.561 1.412-2.61 4.185-5.327 7.14-8.483 1.485-1.572 3.035-3.24 4.538-5.024 1.503-1.784 2.942-3.7 4.337-5.663 1.557-1.447-.97 1.547-.048.85a54.639 54.639 0 0 1 6.962-8.249l-.334.526c4.982-5.785 8.914-9.574 12.921-13.606 2.027-1.994 4.045-4.078 6.416-6.318l8.168-7.615-1.239.542c2.688-2.518 3.347-2.951 4.666-4.064 2.542-3.465-7.455 7.171-5.239 3.919 4.018-2.869 19.085-17.65 22.305-18.982 4.342-3.633-1.63.652 2.713-2.982l1.342-.739.85-1.211c2.888-2.339 4.559-3.257 4.825-3.153-.709.556-1.916 1.7-2.641 2.335 1.955-1.411 4.532-3.612 6.791-5.583 2.321-1.893 4.323-3.555 5.009-4.019l-4.4 3.2c3-2.425 6.2-4.95 9.492-7.523l4.983-3.889 5.175-3.735c3.45-2.493 6.881-4.984 10.185-7.429 3.377-2.341 6.652-4.6 9.675-6.8l-1.068.442c9.262-6.694 7.759-4.83 18.332-11.541l-.361.283a79.613 79.613 0 0 1 3.539-2.453c1.321-.869 2.752-1.778 4.268-2.582-2.628 1.769 5.448-2.462 1.972-.187 10.572-6.419 5.161-3.285 11.9-8 .605-.2 1.213-.4 1.836-.564a56.974 56.974 0 0 1 8-4.747c-4.434 2.611 3.816-1.307-1.118 1.674 6.036-2.6 10.247-5.057 13.838-6.787a43.388 43.388 0 0 1 9.3-3.912c5.061-3.452-10.559 4.219-7.582 2.611-2.715.877 4.206-2.774 8-4.4 3.8-1.8 7.083-1.613 16.806-5.661-.972.394-1.009.493-1.978.886a58.881 58.881 0 0 0 5.492-2.283 29.61 29.61 0 0 1 2.936-1.191 41.31 41.31 0 0 1 3.3-1.033c2.334-1.506 5.915-2.107 6.383-3.119l-9.035 3.472c2.542-1.032 4.942-2.2 7.793-3.452a100.603 100.603 0 0 1 4.687-1.921 91.906 91.906 0 0 1 2.731-.987c.962-.331 2.006-.587 3.1-.88-.624.358-3.128 1.355-4.813 2.135 2.544-.728 4.779-1.755 7.462-2.37a5.217 5.217 0 0 1-2.039 1.031c-1.147.446-2.715.888-4.381 1.539-3.354 1.237-7.315 2.67-9.969 3.954 2.773-.65 10.246-4.327 7.757-2.512a17.116 17.116 0 0 1 3.156-1.638c1.193-.476 2.536-.839 3.953-1.261a68.992 68.992 0 0 0 9.315-3.2l-.31.6c1.054-.41 3.221-1.328 5.207-1.941l-3.41 1.719a42.305 42.305 0 0 1 4.017-1.427c1.35-.373 2.709-.652 4.056-.944a78.55 78.55 0 0 0 8-1.963c-11.184 3.014-2.66.121-7.488 1.057 6.829-2.159 8.9-2.394 11.181-2.631 1.145-.1 2.325-.281 4.215-.561 1.89-.28 4.463-.778 8.352-1.7-2.1.535-8 1.487-4.743.538 3-.567 6.964-1.263 8.839-1.425 10.323-2.4-1.689-.124 2.656-1.39a20.294 20.294 0 0 0 4.463-.836c1.381-.4 2.873-.92 5.149-1.419l.119.469c5.979-.906 6.724-1.294 7.326-1.648.44-.27.923-.462 1.429-.566.432-.11 1.013-.233 1.824-.377a31.866 31.866 0 0 1 3.213-.419c-1.493.4-2.969.89-4.442 1.386l2.781-.577 2.8-.461-1.079.7a119.298 119.298 0 0 1 13.99-2.02c-.716-.076-.547-.319.466-.635a26.429 26.429 0 0 1 5.542-.947c3.671-.043-1.991.639 5.567-.11-2.212.691-4.531.98-6.845.853-.32.187-1.65.446-1.976.665 3.943-.079 9.838-.825 12.573-1.088-1.055.077-2.315.165-2.967.154 3.631-.537 7.263-1.131 10.907-1.623 1.744.106.378.3-.969.528 2.22-.182 3.748-.455 7.02-.655-.827.431-.6.826-5.216 1.224l10.434-.919c.707.138 5.384.218 4.031.426 2.9-.083 6.448-.237 10.241-.431 3.793-.194 7.829-.374 11.674-.232a15.16 15.16 0 0 1 2.841-.12c3.614.195 7.016.479 10.586.691 1.785.106 3.613.2 5.532.245 1.919.045 3.919.213 6.066.243l4.786 1.119c6.7.419-6.486-1.449 4.683-.75 7.916.478 2.888.808 5.623 1.327 6.029.105 12.037.73 17.958 1.868-2.403-.195-4.258-.545-6.496-.788Zm80.425 19.21c-1.559-.411-4.7-1.123-5.716-1.762 1.913.053 3.173.75 5.716 1.762Zm122.033 17.123a21.455 21.455 0 0 1-4.877 1.776c.711-.284 1.483-.552 2.294-.853.811-.301 1.667-.62 2.583-.923ZM985.687 114.8l-.151.077c-.679.217-1.369.398-2.067.544a27.794 27.794 0 0 0 2.218-.621Zm6.828-2.455c.631-.374.556-.413.251-.343a6.73 6.73 0 0 1-1.308.717c-.646.277-1.456.6-2.321.934a11.828 11.828 0 0 0 3.378-1.308Zm-770.436 58.917 1.4-.438c-3.001 1.386-2.194.915-1.4.438Z"/>
  <path fill="#927460" d="M639.737 188.432c-.25.051-.51.026-.746-.071-.6.249-.591.34.746.071Zm-240.269-45.515h-.252a.742.742 0 0 0-.255.087l.507-.087Zm479.494-28.341c-1.5-.321-2.335-.51-2.884-.687-.1.113.573.284 2.884.687Zm142.288-27.218c-.96 1.253-1.93 2.5-2.91 3.727 1.45-1.758 2.04-2.336 2.84-3.183-.16.008-.86.608.07-.544Zm31.84-26.998c.57-.418 1.25-.806 1.81-1.2l-.28-.1c-2.53 1.598-4.19 2.859-1.53 1.3Zm-27.82 24.55c.56-.039 2.32-2.481 4.4-5.131l-.37.461c.19-1.13-1.95 1.776-4.03 4.67Zm4.89-5.737c.66-.8 1.32-1.635 2.01-2.388.09-.452-.86.925-2.01 2.388Zm-29.7 28.59c1.36-.726.54-.945 1.36-1.265.58-.665-1.49.807-2.846 1.88-.676.541-1.221.9-1.107.927a10.84 10.84 0 0 0 2.593-1.542Zm27.56-24.13-1.15.623-.86 1.72 2.01-2.343Zm-17.85 19.465c.67-.579 1.36-1.146 2.02-1.738l1.97-1.813c-.12 0 .32-.524.87-1.15-1.14 1.193-2.41 2.355-3.35 3.24a8.56 8.56 0 0 0-1.51 1.461Zm4.86-4.701a37.764 37.764 0 0 0 2.85-3.211c-.62.692-1.94 2.182-2.85 3.211Zm8.51-8.956-1.08 1.162c-.8.974-1.64 1.923-2.45 2.885 1.19-1.337 2.37-2.686 3.53-4.047Zm-66.478 31.977c-1.942.086-3.887.183-5.833.2-.6.158.995.315 3.172.2 1.4-.12 3.561-.258 2.661-.4Zm17.764-.471a10.04 10.04 0 0 1-2.626.072l-.079.641c.909-.205 1.81-.45 2.705-.713Zm-17.081 1.963c-.574.244-8.56.62-1.07.5.599-.2 6.495-.592 1.07-.5Zm-87.459-11.33 1.473.205-.073-1.04-1.4.835Zm-76.877 3.22c6.774-.946 1.486-.972 7.663-1.55 1.563-.46-5.055.449-3.451.017-4.044.953-6.199 1.216-4.212 1.533Zm4.212-1.533a78.79 78.79 0 0 0 2.074-.444c-1.182.228-1.733.354-2.074.444ZM7.006 334.91l-2.913 3.411 2.042-2.076.871-1.335Zm-4.666 7.251-1.163.441L0 345.079a25.92 25.92 0 0 1 2.34-2.918Zm539.896-170.565.371-.024a20.42 20.42 0 0 0-3.461-1.562l3.09 1.586Zm-57.125-18.052 1 .243-1.754-1 .754.757Zm-49.759-7.424c1.021.106 2.139.156 3.252.253 1.112.12 2.224.241 3.245.389-4.44-.544-6.98-1.381-6.497-.642Z"/>
</svg>
